<?xml version="1.0" standalone="no"?>
<!DOCTYPE svg PUBLIC "-//W3C//DTD SVG 1.1//EN" "http://www.w3.org/Graphics/SVG/1.1/DTD/svg11.dtd" >
<svg xmlns="http://www.w3.org/2000/svg">
<metadata>
This is a custom SVG webfont generated by Font Squirrel.
Copyright   : From the WSIFont Collection  Digital font data Copyright c1995 Weatherly Systems Inc  All Rights Reserved  Redistribution strictly prohibited
</metadata>
<defs>
<font id="AlisonsHandRegular" horiz-adv-x="1046" >
<font-face units-per-em="2048" ascent="1638" descent="-410" />
<missing-glyph horiz-adv-x="794" />
<glyph unicode=" "  horiz-adv-x="794" />
<glyph unicode="&#x09;" horiz-adv-x="794" />
<glyph unicode="&#xa0;" horiz-adv-x="794" />
<glyph unicode="!" horiz-adv-x="794" d="M334 -209q0 37 44 89t81 52q31 0 58.5 -35.5t27.5 -70.5q0 -55 -74 -88q-59 -27 -123 -27q-8 41 -14 80zM354 332q0 111 52 330q39 162 79 325q4 16 8.5 64.5t10.5 78.5q14 70 78 87q14 -55 14 -117q0 -125 -64.5 -364.5t-64.5 -360.5q0 -33 10 -76q25 -102 25 -129 t-2 -37t-15 -37q-131 86 -131 236z" />
<glyph unicode="&#x22;" horiz-adv-x="776" d="M246 1214q0 55 13 98.5t50 78.5q29 -25 44.5 -64t15.5 -82q0 -37 -14.5 -107.5t-30.5 -70.5l-15 2q-20 0 -37 -8q-26 79 -26 153zM453 1208q0 115 69 203q16 -20 39 -20v-54q0 -90 -14 -131q-20 -61 -82 -104q-12 53 -12 106z" />
<glyph unicode="#" horiz-adv-x="1609" d="M307 307q31 35 145.5 58.5t114.5 115.5q0 31 -10 73t-14 64q-53 -4 -123 -30q-37 -14 -72 -29q-6 45 -20 78q262 66 280 244q8 92 88 123q0 -43 -2 -89l-4 -90l6 -71q111 10 207 37q141 41 164 102q16 49 27.5 65.5t29.5 28.5l-2 -72q0 -43 18.5 -63.5t84.5 -20.5h41 q53 0 80 -14q39 -23 49 -84q-49 12 -73 15.5t-58 3.5q-133 0 -134 -125q0 -25 5.5 -47.5t9.5 -38.5q104 31 155.5 41t94.5 10q49 0 98 -12q-39 -33 -229 -68q-137 -25 -170 -168q-10 -43 -17.5 -73.5t-29.5 -96.5q-10 70 -19 141q-23 84 -90 84q-178 0 -256 -104 q-90 -119 -100 -121l2 62q0 47 -36 63t-99 16q-29 0 -78.5 -4t-63.5 -4zM625 541q0 -51 19.5 -91t64.5 -40q33 0 82 20q68 29 83 33q102 27 136 43q78 39 77 110q0 49 -26.5 86t-75.5 37q-29 0 -44 -3t-54 -15q-162 -47 -168 -49q-94 -43 -94 -131z" />
<glyph unicode="$" horiz-adv-x="1531" d="M330 229q35 0 54 -3t60 -15q33 70 49.5 124t16.5 118q0 70 -49 127q-113 133 -113 213q0 61 110.5 93t121.5 91q27 164 53 330l29 14l55 -6q-14 -61 -28.5 -127t-14.5 -121q0 -68 22 -121q145 33 293 66q14 8 58 225q39 -92 77 -182q23 -31 146 -31h108 q-123 -47 -245 -92q-68 -43 -68 -260q0 -131 144.5 -135.5t144.5 -94.5q0 -139 -162 -219q-129 -61 -258 -121q-12 -41 -12 -59q0 -14 5 -43t5 -47v-29q-80 14 -101 76q-37 119 -231 119q-43 0 -60.5 -10.5t-35.5 -49.5q4 -14 21.5 -43.5t17.5 -52.5q-6 -14 -23.5 -31.5 t-36.5 -27.5q-53 53 -57 123.5t-35 109.5q-18 20 -34.5 42.5t-26.5 49.5zM436 752q0 -29 33 -72q2 -2 55 -64q12 25 21.5 55.5t9.5 55.5q0 18 -4 41t-8 43q-47 -6 -66 -12q-41 -14 -41 -47zM545 274q0 -66 45 -90q35 -18 108 -18q115 0 179 84q51 68 73 194 q-70 14 -166 28.5t-184 29.5q-23 -68 -35 -113q-20 -76 -20 -115zM637 688q0 -92 84 -127q53 -23 164 -22q57 0 90 51q41 63 41 186q0 86 -19 117q-25 41 -104 41q-111 0 -183.5 -68.5t-72.5 -177.5zM950 231q117 0 193 41q86 47 119 152q-31 14 -82.5 31.5t-81.5 17.5 q-82 0 -121 -129q-21 -82 -27 -113z" />
<glyph unicode="%" horiz-adv-x="1589" d="M387 1063q0 109 78 182q53 51 176 107q10 4 35.5 21.5t40.5 17.5q18 0 37.5 -10.5t36.5 -24.5q10 -8 45 -13q78 0 98 -8q43 -16 43 -75q0 -90 -197 -205q-184 -106 -288 -107q-105 0 -105 115zM469 1096q0 -18 6 -40t8 -32q123 27 190.5 60.5t160.5 113.5q-27 4 -86.5 34 t-85.5 30q-61 0 -127 -53.5t-66 -112.5zM502 59q10 55 33.5 109.5t56.5 110.5l262 401q43 100 162 303q113 193 188 295q35 49 64 74q41 33 90 41q0 -84 -92 -176q-66 -66 -84 -95q-123 -207 -285 -489q-145 -256 -276 -498q-25 -41 -45.5 -53.5t-73.5 -22.5zM920 156 q0 123 93 208t218 85q88 0 135 -41t47 -129q0 -106 -106.5 -207t-212.5 -101q-72 0 -123 55.5t-51 129.5zM1028 158q0 -45 18.5 -70t63.5 -25q76 0 136.5 71t60.5 149q0 86 -86 86q-80 0 -136.5 -64.5t-56.5 -146.5z" />
<glyph unicode="&#x26;" horiz-adv-x="1552" d="M311 383q0 74 225.5 104.5t247.5 184.5q0 6 11.5 228t113.5 280q10 -25 16.5 -60t6.5 -65q0 -70 -21 -172q-45 -225 -45 -291l6 -51q98 35 209 73.5t193 38.5q37 0 63.5 -13t26.5 -46q0 -61 -184 -113q-125 -29 -248 -57q-37 -10 -51.5 -48t-14.5 -104q0 -37 6.5 -96 t6.5 -74q0 -45 -7.5 -58t-44.5 -32q-72 0 -163 86q-72 66 -142 133q-88 35 -133 53.5t-59 41.5q-2 2 -10.5 22.5t-8.5 34.5zM502 348q49 -68 119.5 -121t154.5 -90l2 111q0 72 -10 106q-18 66 -74 66q-45 0 -95 -24.5t-97 -47.5z" />
<glyph unicode="'" horiz-adv-x="518" d="M362 1337q0 94 23 158q33 92 107 109l4 -76q0 -102 -23 -172q-31 -96 -100 -139q-6 25 -8.5 54t-2.5 66z" />
<glyph unicode="(" horiz-adv-x="890" d="M16 428q0 274 126 561t325 477q53 55 108 111q57 47 144 47q0 -51 -162 -215q-203 -205 -301 -373q-164 -283 -164 -614q0 -152 62 -234q70 -92 217 -92q-12 -37 -35 -59.5t-60 -22.5q-141 0 -208 144q-52 110 -52 270z" />
<glyph unicode=")" horiz-adv-x="1103" d="M254 -70q10 72 131 146q154 94 211 170q113 150 113 411q0 158 -47 385q-2 6 -93 381q-49 203 -49 273q0 16 7.5 34.5t21.5 38.5q18 0 39.5 -26.5t34.5 -71.5q55 -160 106 -464t51 -478q0 -313 -108 -510q-131 -240 -418 -289z" />
<glyph unicode="*" horiz-adv-x="1067" d="M150 1096q78 8 161.5 20t147.5 37q-37 61 -125 111l-148 82q29 6 39 8q14 2 43 2q61 0 146 -43l86 -45q23 47 51 125q20 55 45 129q29 -29 43 -58q-6 -49 -11 -109.5t-5 -84.5q0 -49 12 -96l213 210l6 -47q0 -45 -41 -96q-31 -35 -43 -49l115 2l41 -2 q-12 -43 -25.5 -58.5t-32.5 -15.5q-12 0 -37.5 3t-33.5 3q-37 0 -66 -26.5t-29 -65.5t46 -108l40 -62l11 4q27 0 65.5 -80.5t38.5 -113.5q-37 4 -61.5 12t-36.5 31q-59 100 -115.5 166.5t-152.5 152.5q-63 -262 -78 -289q-47 -90 -135 -114l102 364l-4 60q-49 -8 -85 -12.5 t-67 -4.5q-81 1 -120 58z" />
<glyph unicode="+" horiz-adv-x="1744" d="M285 512q80 18 213 41q184 31 213 37q92 20 129 170.5t84 177.5q14 -41 14 -86q0 -27 -3 -68t-3 -43q0 -96 86 -96q35 0 108.5 12.5t110.5 12.5q76 0 105.5 -23.5t29.5 -95.5q-119 18 -143 20q-72 8 -144 9q-178 0 -208 -134q-37 -162 -86 -186q-25 45 -32 84t-7 92v42 v34q-49 0 -127 -18q-172 -41 -215 -41q-47 0 -76 12t-49 47z" />
<glyph unicode="," horiz-adv-x="755" d="M381 -242q0 37 35 106.5t35 108.5q0 43 -30 106.5t-30 78.5q0 18 9.5 37.5t23.5 35.5l90 -86q51 -57 51 -110q0 -86 -26 -189q-37 -137 -93 -137q-31 0 -48 10t-17 39z" />
<glyph unicode="-" horiz-adv-x="950" d="M174 715q6 37 19.5 62.5t44.5 25.5q18 0 55 -6t55 -6q33 0 72 10q113 31 123 30l223 23q16 2 22 2q133 0 162 -123q-45 0 -108 6q-147 14 -183 15q-68 0 -195.5 -26t-184.5 -26q-52 1 -105 13z" />
<glyph unicode="." horiz-adv-x="696" d="M324 137q0 47 33.5 88t78.5 41q53 0 95 -44t42 -95q0 -43 -27.5 -66.5t-72.5 -23.5q-61 0 -98 18q-51 27 -51 82z" />
<glyph unicode="/" horiz-adv-x="1087" d="M383 70q0 80 33 180q16 47 69 170q39 82 88 170q76 139 93 170q70 166 141 332q20 39 46 73.5t58 51.5q16 -27 25.5 -51.5t9.5 -51.5q0 -35 -26 -94q-6 -12 -48 -92q-82 -156 -161.5 -311.5t-151.5 -317.5q-14 -31 -43 -135q-10 -41 -29 -84q-10 -27 -38.5 -42t-59.5 -20 z" />
<glyph unicode="0" horiz-adv-x="950" d="M174 113q0 322 162 702q154 362 381 617q39 -82 39 -154q100 -37 153 -135q47 -88 47 -205q0 -326 -120 -530q-106 -180 -392 -392q-33 -25 -77.5 -42t-83.5 -17q-66 0 -87.5 43t-21.5 113zM274 203q0 -78 17 -142q248 43 430 318q168 254 168 516q0 119 -31 203 q-45 121 -141 121q-104 0 -215 -220q-90 -176 -159 -434t-69 -362z" />
<glyph unicode="1" horiz-adv-x="696" d="M188 160q0 109 45 241l91 230q53 137 63 246.5t23.5 233.5t44.5 226q20 68 43 109q35 61 84 82q23 -45 22 -92q0 -29 -8 -56.5t-25 -66.5q-55 -135 -102 -318q-23 -86 -74 -336q-43 -209 -73 -331q-4 -16 -8.5 -83t-6.5 -75q-31 -84 -112 -94z" />
<glyph unicode="2" horiz-adv-x="1028" d="M174 387q238 82 411 337t173 511q0 51 -24.5 87t-76.5 36q-164 0 -303 -187q-84 -129 -123 -184q-8 18 -10 34.5t-2 39.5q0 139 170 267t313 128q66 0 95 -55q23 -43 22 -115q0 -229 -119.5 -478t-293.5 -421q47 -12 96 -16t108 -4q37 0 110 2t107 2q111 0 201 -23 q-51 -39 -164.5 -53t-263.5 -14h-31h-26h-82q-39 0 -74 2q-86 0 -129 14q-70 24 -84 90z" />
<glyph unicode="3" horiz-adv-x="911" d="M174 1333v78q143 33 306 56.5t292 23.5q55 0 86 -14q45 -23 45 -70q0 -80 -141 -190q-350 -274 -377 -349q143 -41 225 -92q131 -80 131 -186q0 -111 -154.5 -251t-267.5 -140q-41 0 -62 24.5t-26 67.5q117 0 258 90q154 98 154 207q0 90 -170 151.5t-170 145.5 q0 55 107 155q14 14 215 181q133 111 170 170q-55 14 -119 14q-78 0 -314 -47q-122 -25 -188 -25z" />
<glyph unicode="4" horiz-adv-x="929" d="M174 811q0 74 121 364.5t170 313.5q8 -31 8 -70q0 -86 -70 -245q-57 -123 -112 -246q37 -10 71 -10q217 0 304 108q47 59 77.5 213t90.5 191l6 -56q0 -29 -9 -71q-18 -98 -18 -123q0 -59 33 -86q51 -29 84 -50q-14 -18 -33 -32q-10 -8 -66 -43q-43 -27 -130 -237 t-101 -288q-6 -37 -6 -73v-42q0 -22 2 -42q0 -49 -21.5 -75t-70.5 -40q-18 53 -19 109q0 80 109 350q51 127 51 217l-6 59z" />
<glyph unicode="5" horiz-adv-x="1280" d="M172 858q0 63 119 326.5t160 281.5q23 -4 69.5 -19t75.5 -15q80 0 199 24q258 53 329 53q61 0 101.5 -15t54.5 -64q-70 -16 -348 -33q-393 -25 -529 -195q-43 -55 -90 -151q-53 -111 -53 -164q0 -51 168 -135t168 -215q0 -100 -86 -197q-76 -84 -180 -129l-12.5 37.5 t-8.5 38.5q0 18 93.5 81.5t93.5 153.5q0 113 -162 168t-162 168z" />
<glyph unicode="6" horiz-adv-x="1028" d="M170 338q0 170 141 407q115 193 318 420q162 182 321 322l78 -37q-152 -162 -303 -322q-213 -227 -319 -391q-150 -227 -150 -399q0 -139 131 -184q49 141 154 225q113 90 258 90q72 0 110 -14q63 -25 64 -82q0 -131 -157 -259t-294 -128q-141 0 -246.5 105.5 t-105.5 246.5zM465 96q41 -10 76 -10q111 0 202 80q80 70 129 182q-49 25 -104 25q-104 0 -190 -90q-72 -76 -113 -187z" />
<glyph unicode="7" horiz-adv-x="1144" d="M174 1354q0 33 4 48t6 23q25 16 58 17q18 0 53 -6t53 -6h252q68 0 160 6q215 14 266 14q45 0 88 -18l16 -33q2 -4 9 -15q0 -45 -131 -266q-74 -123 -258 -413q-162 -252 -185.5 -296t-48.5 -153q-12 -59 -31 -160q-88 25 -88 109q0 125 142 356q41 66 282 418 q170 248 207 354q-86 20 -170 27.5t-194 7.5q-86 0 -258.5 -7t-231.5 -7z" />
<glyph unicode="8" horiz-adv-x="1220" d="M180 31q0 115 90 243l254 361q-10 33 -55 113q-37 66 -37 131q0 211 252 383q229 156 453 155l84 -6q-12 -96 -152 -260l-254 -287q-133 -168 -133 -282q0 -82 73.5 -254t73.5 -269q0 -121 -102 -174q-78 -41 -213 -41q-168 0 -258 58q-76 49 -76 129zM262 35 q0 -74 109 -98q57 -12 172 -13q78 0 129 31q63 37 63 111q0 90 -28 184q-20 70 -127 293q-98 -61 -205 -228q-113 -174 -113 -280zM532 885q0 -45 12.5 -82t39.5 -88q98 88 258 280q184 221 205 299l-46 4q-143 0 -306 -137t-163 -276z" />
<glyph unicode="9" horiz-adv-x="1028" d="M178 1073q0 121 152.5 241t277.5 120q74 0 143.5 -55.5t69.5 -125.5q0 -35 -24.5 -58.5t-61.5 -35.5q0 84 -26 129q-35 57 -113 58q-100 0 -205 -72q-117 -80 -117 -174q0 -55 52 -78q37 -16 98 -16q231 0 358 75q102 96 207 195q16 -43 17 -80q0 -47 -29 -113 q-84 -193 -84 -194q-53 -203 -94 -375q-47 -195 -84 -381l-21 -143q-23 -104 -67 -105q-35 0 -66 13l-18 43q0 51 37 129q29 61 59 125q68 188 116 396t48 376q0 6 -2 14l-8 25q-88 -37 -167 -57.5t-161 -20.5q-111 0 -178 22q-109 37 -109 123z" />
<glyph unicode=":" horiz-adv-x="522" d="M227 586q0 74 50.5 113.5t125.5 39.5q33 0 51.5 -14t18.5 -47q0 -59 -52 -121.5t-114 -62.5q-37 0 -58.5 27.5t-21.5 64.5zM231 80q0 51 33 74.5t86 23.5q41 0 78 -20.5t37 -59.5q0 -23 -34 -63.5t-58.5 -50t-50.5 -9.5q-41 0 -66 31t-25 74z" />
<glyph unicode=";" horiz-adv-x="638" d="M252 -442q8 90 86 225q90 160 108 217q-29 4 -58.5 15.5t-57.5 23.5q10 37 38.5 64.5t65.5 27.5q51 0 80 -39t29 -92q0 -127 -88 -258t-203 -184zM387 580q0 33 64 102q25 27 51 53l65 -28q33 -18 33 -58q0 -53 -43 -112q-29 -39 -55 -39q-25 0 -70 27.5t-45 54.5z" />
<glyph unicode="&#x3c;" horiz-adv-x="1067" d="M276 563q0 47 117 172q92 98 236 226l184 159l78 -37q-12 -43 -114.5 -137t-205.5 -184q-121 -111 -168 -182q238 -53 259 -60q197 -57 196 -112q0 -27 -20.5 -45.5t-46.5 -18.5q-37 0 -80 21q-119 57 -131 59q-147 25 -179 35q-125 38 -125 104z" />
<glyph unicode="=" horiz-adv-x="1103" d="M291 850q47 18 144 24.5t135 14.5t97.5 36.5t88.5 43.5q10 -12 51 -41q31 -23 47 -58q-164 -39 -246 -57q-193 -43 -235 -43q-29 0 -49.5 23.5t-32.5 56.5zM328 541q27 27 61.5 36t83.5 9q35 0 68.5 -2t68.5 -4q29 0 96.5 11t88.5 11q90 0 135 -82q-55 -25 -128 -38 t-140 -13q-98 0 -179 16.5t-155 55.5z" />
<glyph unicode="&#x3e;" horiz-adv-x="1163" d="M344 268q0 84 121 211q45 47 227 207q125 109 125 141q0 76 -157.5 231.5t-157.5 192.5q0 10 14 29.5t25 19.5q25 0 51 -24q20 -18 39 -45q176 -190 273 -299t97 -133q0 -18 -9 -33.5t-31 -38.5q-14 -10 -58 -33q-25 -12 -35 -18q-127 -76 -214 -166t-248 -354 q-23 29 -37 53q-25 39 -25 59z" />
<glyph unicode="?" horiz-adv-x="1298" d="M254 1503q84 39 184.5 50.5t243.5 11.5q139 0 236 -56q121 -70 120 -198q0 -109 -133 -226q-12 -10 -223 -159q94 -133 108.5 -175t14.5 -198q0 -59 -18.5 -102t-65.5 -66q-12 61 -17.5 103t-5.5 83q0 23 2 53.5t2 43.5q0 43 -33.5 96t-144.5 180q158 74 258 146 q168 119 168 215t-141 143q-104 35 -225 35q-37 0 -84 -10q-115 -25 -144 -25q-67 0 -102 55zM668 57q0 53 25.5 101.5t74.5 48.5q41 0 76 -24.5t35 -63.5q0 -41 -52.5 -91.5t-93.5 -50.5q-33 0 -49 22.5t-16 57.5z" />
<glyph unicode="@" horiz-adv-x="1669" d="M383 649q0 274 166 465q174 201 446 201q254 0 457 -184.5t203 -436.5q0 -164 -238.5 -425t-390.5 -261q-240 0 -441.5 201.5t-201.5 439.5zM444 625q0 -197 152 -320q63 -51 322 -178q33 -16 57 -24.5t51 -8.5q98 0 302 191.5t204 292.5q-184 -117 -229 -138 q-80 -35 -158 -34q-63 0 -115 92l-41 82q-66 -35 -136.5 -60.5t-129.5 -25.5q-80 0 -126 48t-46 130q0 145 133 294.5t274 149.5q88 0 146.5 -60.5t58.5 -150.5q0 -49 -22.5 -143t-22.5 -141q0 -35 16.5 -75t49.5 -40q76 0 225 119q158 125 158 206q0 102 -192.5 265.5 t-297.5 163.5q-256 0 -444.5 -186.5t-188.5 -448.5zM618 711q0 -68 33 -107t101 -39q127 0 225 84t98 207q0 70 -26 115q-33 57 -97 57q-106 0 -220 -105.5t-114 -211.5z" />
<glyph unicode="A" horiz-adv-x="1609" d="M195 78q74 92 154.5 184t160.5 182q117 133 160 185q72 86 184 241q98 135 180 246q113 154 189 240q6 8 29.5 25.5t33.5 17.5q68 0 105 -96q45 -117 45 -383q0 -78 -2 -128.5t-4 -93.5q0 -49 5 -83.5t25 -63.5q70 -25 93.5 -40t33.5 -40q-2 -31 -16 -68q-55 14 -115 41 q-8 -35 -8 -79q0 -49 22.5 -145.5t22.5 -145.5q0 -37 -3 -52.5t-13 -37.5q-59 16 -81 63t-22 119q0 37 2 70l4 65q0 74 -20 105q-27 41 -96 40q-92 0 -238 -24q-315 -53 -405 -53q-66 0 -250 -197q-88 -94 -176 -94zM639 485q68 -31 143 -30q55 0 136 14q180 33 227 33 q154 0 203 59q37 45 36 172q0 25 -1 52.5t-1 58.5v16q0 166 -41 256q-33 74 -100 119q-102 -127 -202.5 -248t-202.5 -248q-136 -168 -197 -254z" />
<glyph unicode="B" horiz-adv-x="1435" d="M203 193q0 76 33 184q27 90 55 182q41 213 84 428q57 236 162 346q137 143 401 144q154 0 289 -45q188 -61 188 -183q0 -119 -162 -284q-86 -88 -262 -230q74 -33 114 -89t40 -136q0 -178 -132 -330.5t-306 -152.5q-111 0 -183 55q-80 61 -80 170q25 -10 134 -88 q82 -59 145 -60q113 0 228.5 146.5t115.5 263.5t-176 145q-113 12 -154 17v78q160 0 367 161q217 170 217 322q0 86 -160 129q-113 31 -231 31q-117 0 -236 -41q-152 -53 -176 -139q-90 -393 -178 -787q-10 -35 -19.5 -142.5t-27.5 -144.5q-35 -20 -80 -30q-10 45 -10 80z " />
<glyph unicode="C" horiz-adv-x="1415" d="M227 528q0 195 61.5 342.5t176.5 272.5q80 88 266 237q68 55 129 86q78 39 150 39q90 0 151.5 -52t61.5 -140q-47 0 -154 80q-53 39 -88 39q-168 0 -420 -323t-252 -513q0 -207 39 -326q63 -190 223 -190q106 0 257 44t301.5 89t228.5 45q57 0 96 -27q-45 -72 -440 -155 q-354 -76 -512 -76q-152 0 -223 201q-52 141 -52 327z" />
<glyph unicode="D" horiz-adv-x="1357" d="M227 322q0 182 78 483q63 240 127 481q20 168 43 336l31 20q35 -8 78 -32q68 -39 75 -43q35 0 86 8q115 18 146 18q231 0 338 -118q100 -113 100 -349q0 -158 -122 -435t-271 -470q-172 -221 -295 -221q-102 0 -145 80q-33 59 -33 172q20 -66 53 -105q41 -49 102 -49 q133 0 291 228q137 197 237.5 465t100.5 403q0 168 -75.5 241.5t-245.5 73.5q-76 0 -209 -25.5t-162 -60.5q-39 -49 -96 -323q-43 -209 -86 -510t-43 -379q-16 0 -30.5 -2t-49.5 -14q-12 27 -17.5 57.5t-5.5 69.5z" />
<glyph unicode="E" horiz-adv-x="1318" d="M195 174q129 434 258 870q16 135 34 273q18 96 54.5 134t85.5 38q0 -92 20 -174l678 211q43 -14 86 -27q31 -18 31 -88q-18 -2 -40 -3t-34 -1q-20 0 -67.5 2t-71.5 2q-68 0 -361 -109.5t-301 -142.5q-37 -158 -92 -321q-160 -473 -172 -518.5t-40.5 -87.5t-67.5 -58z M444 16q49 68 131 111q16 8 277 96q55 18 75.5 23.5t43.5 5.5h30q6 0 31 -8l15 -51l-332 -95q-33 -10 -99 -37q-109 -45 -172 -45zM549 715q227 102 244 108q156 61 254 62q47 0 78.5 -15.5t43.5 -58.5q-106 -12 -160.5 -19.5t-90.5 -25.5q-63 -33 -105 -53 q-147 -74 -186 -74q-31 0 -49.5 21.5t-28.5 54.5z" />
<glyph unicode="F" horiz-adv-x="1103" d="M207 76q0 154 96 418q90 238 180 477q98 289 99 481q23 14 57 18q14 -57 29 -112q25 -72 71 -72q45 0 383 113q182 61 215 71l25 -14q-31 -72 -296 -154.5t-330.5 -104t-170.5 -286.5q-84 -211 -168 -516q-76 -276 -88 -377h-63h-35zM618 676q33 66 114 114t159 48 q72 0 117 -47z" />
<glyph unicode="G" horiz-adv-x="1202" d="M207 352q0 102 188 289q182 178 398 313q233 145 356 146q78 0 113 -56q-221 -27 -390 -129q-106 -66 -264 -225q-182 -184 -270 -252l-16 -45q23 -160 196 -243q141 -68 326 -68q82 0 131 36t72 113l-181 13q-106 20 -129 102q45 12 106.5 16.5t121.5 4.5h102 q43 0 70.5 -18.5t27.5 -59.5q0 -147 -131 -230q-113 -70 -268 -69q-174 0 -350 94q-209 110 -209 268z" />
<glyph unicode="H" horiz-adv-x="1415" d="M205 150q0 109 102 280l209 313q129 193 160 295.5t45 151.5q25 80 55 143q49 -68 49 -157q0 -121 -110 -304q-35 -57 -193 -274q23 -4 50.5 -6t52.5 -2q199 0 317 28q190 45 248 170q55 229 97 357.5t87 136.5q14 -8 19.5 -40t5.5 -60q0 -121 -109.5 -348.5 t-218.5 -444.5q-131 -262 -160 -389q-45 8 -58 18.5t-34 51.5q14 63 109 247q88 174 139 244q-84 0 -197 -18q-262 -43 -327 -43q-109 0 -178 -193q-76 -209 -152 -229q-6 31 -6 35q-2 14 -2 37z" />
<glyph unicode="I" horiz-adv-x="1087" d="M205 115q0 35 37 48t92 13q23 0 55.5 -2t38.5 -2q43 0 60.5 25.5t17.5 70.5q0 274 45 506q53 268 168 479q12 -49 12 -100q0 -125 -53 -301q-117 -385 -117 -502q0 -109 24.5 -146.5t209.5 -90.5l12 4q18 0 23.5 -14.5t5.5 -41.5v-26q-12 -2 -25 -8q-43 -18 -47 -19 q-39 0 -100 8q-139 18 -175 19q-16 0 -36.5 -1t-44.5 -1q-113 0 -158 21.5t-45 60.5zM231 1432q72 16 195 22t246 6q84 0 162.5 -1t152.5 -1q98 0 154.5 -5t138.5 -21v-78q-70 0 -236.5 11t-220.5 11q-55 0 -235 -20q-90 -10 -144 -10q-74 0 -118 14q-66 21 -95 72z" />
<glyph unicode="J" horiz-adv-x="1357" d="M211 406q150 -117 242 -185q176 -129 243 -129q90 0 178 301q66 225 127 600q33 217 66 437q33 -35 48 -82.5t15 -98.5q0 -63 -62 -345.5t-135 -559t-93 -297.5q-37 -37 -103 -37q-119 0 -317 140q-209 145 -209 256zM522 1720q8 -27 54.5 -36t123.5 -9q49 0 85 2t67 4 q90 0 273.5 -7t248.5 -7q94 0 126 -25.5t32 -74.5v-21q-113 25 -230.5 34t-263.5 9q-106 0 -211.5 -2t-208.5 -4q-57 0 -74.5 11.5t-17.5 41.5q2 23 2 37q0 18 -6 47z" />
<glyph unicode="K" horiz-adv-x="1318" d="M211 16q0 170 104 465q6 16 199 498q106 266 107 348q0 29 -8.5 88.5t-8.5 89.5q0 39 10.5 55.5t28.5 16.5q41 0 63.5 -38t22.5 -85q0 -102 -52 -243.5t-102 -272.5q-55 -147 -55 -219l2 -41q100 35 246 133q125 84 250 170q141 88 233 102q29 -18 29 -59q0 -53 -82 -78 l-74 -20q-82 -25 -385 -228q-135 -90 -196 -100l-17 49q-16 33 -22 47q-74 -150 -108 -263.5t-66 -297.5q-19 -103 -119 -117zM940 723q6 16 10 18q12 0 86 -116q90 -147 183 -295q37 -57 57 -101q29 -63 29 -112l-7 -41q-55 8 -95 44t-62 89q-72 162 -115 264 q-86 207 -86 250z" />
<glyph unicode="L" horiz-adv-x="911" d="M215 121q0 59 61 250q96 301 115 364q61 225 62 373q0 47 -9 117q-18 156 -18 194q0 39 12.5 63.5t46.5 24.5q37 0 56.5 -29.5t19.5 -66.5q0 -193 -33 -410q-23 -156 -82 -405q-18 -76 -98 -401q199 -6 314 -15q215 -16 215 -123l-5 -39q-39 0 -204 27q-76 12 -125 12 q-33 0 -100.5 -8t-104.5 -8q-70 0 -96.5 21.5t-26.5 58.5z" />
<glyph unicode="M" horiz-adv-x="1628" d="M180 311q0 154 101 537q78 299 163 543q74 -20 74 -88q0 -49 -35 -129q-92 -209 -94 -226q-8 -43 -55 -229q-68 -270 -68 -393l4 -74q76 61 199 381l201 553q109 285 159 284q74 0 113 -185t90 -185q45 0 184.5 98t225.5 98q80 0 124 -57t44 -139q0 -135 -43 -297 t-86 -314q-53 -186 -61.5 -278t-26.5 -133q-25 -55 -76 -78q-12 18 -24.5 42t-12.5 40q0 133 55.5 306t111.5 351.5t56 309.5t-119 131q-39 0 -75 -19q-25 -12 -66 -43q-92 -59 -135 -90q-78 -55 -110.5 -120.5t-57.5 -254.5q-37 -287 -43 -311q-35 -164 -102 -207 q-23 76 -23 172q0 125 66.5 368t66.5 361q0 174 -92 316q-61 -88 -182 -422q-158 -436 -203 -547q-115 -279 -197 -307q-27 55 -39 113.5t-12 121.5z" />
<glyph unicode="N" horiz-adv-x="1435" d="M182 248q0 86 88 348q63 188 183 496q74 188 147 378q16 41 25 56q20 33 51 33q117 0 205 -281q31 -96 123 -551q66 -324 122 -379q59 262 84 363q74 297 142 489q90 254 159 287l5 -49q2 -20 2 -31q0 -117 -87.5 -340t-170.5 -434q-90 -256 -91 -426q0 -68 13 -129 q-12 -4 -29.5 -12.5t-46.5 -26.5q-55 102 -121 457q-84 451 -117 575q-80 295 -190 340q-37 -125 -119 -307q-43 -92 -84 -182q-49 -113 -88 -281q-94 -406 -111 -451q-37 -27 -81 -36q-13 47 -13 94z" />
<glyph unicode="O" horiz-adv-x="1415" d="M195 387q0 223 68.5 393t221.5 342q59 76 121 152q74 80 170 80q299 0 416 -39q223 -76 223 -311q0 -311 -258 -648q-276 -358 -577 -358q-176 0 -280.5 106.5t-104.5 282.5zM274 414q0 -184 84 -254q74 -61 263 -62q254 0 505 365q236 340 236 608q0 115 -115 170 q-86 41 -217 41q-287 0 -526 -293q-230 -280 -230 -575z" />
<glyph unicode="P" horiz-adv-x="1067" d="M225 90q0 70 137 412q119 293 189 434q25 49 39 108q41 176 43 179q49 37 68.5 77.5t19.5 94.5q0 33 -6 75q53 -10 74.5 -28.5t46.5 -69.5q188 96 233 117q150 66 248 65q76 0 127 -42t51 -117q0 -68 -154 -232q-141 -150 -309 -279.5t-221 -129.5q-31 0 -53.5 21.5 t-38.5 55.5q178 61 389 222q242 182 283 327q-23 37 -40.5 45.5t-62.5 8.5q-342 0 -557 -359q-98 -166 -268 -676q-123 -369 -232 -381q-2 10 -4 32t-2 40z" />
<glyph unicode="Q" horiz-adv-x="1552" d="M205 455q0 176 182 467q174 279 404 489q248 227 407 227q70 0 100 -71q-33 -14 -100.5 -23.5t-93.5 -17.5q-145 -45 -346 -242q-193 -190 -334 -420q-152 -248 -152 -401q0 -168 144 -277q131 -98 305 -98q119 0 242 70q143 80 143 190q0 43 -51 105q-63 76 -74 102 q6 39 27 63q47 -29 94 -77q31 -31 80 -97q158 197 219 344q53 125 53 236q0 113 -68 217q-78 119 -186 119q-61 0 -117 -74q-4 -6 -75 -127l-7 66q0 84 60.5 163.5t142.5 79.5q131 0 232 -151q90 -135 90 -275q0 -141 -82 -313l-184 -381q0 -55 81.5 -196.5t81.5 -231.5 q0 -12 -10 -33q-57 45 -106 125q-72 119 -144 240q-121 -121 -209 -172q-117 -68 -258 -68q-217 0 -350 113q-141 119 -141 330z" />
<glyph unicode="R" horiz-adv-x="1357" d="M195 156q0 70 91 326.5t187 469.5q113 246 166 285q-4 -33 -12 -72q-23 -109 -25 -123q137 98 195 136q117 78 202 122q115 59 224 93q92 -39 186 -76q84 -53 84 -176q0 -170 -149.5 -352.5t-305.5 -364.5q0 -74 132.5 -259t132.5 -263l-5 -37q-53 14 -182 201 q-100 143 -217 346q-106 184 -106 204q37 0 102.5 -17t89.5 -17q141 0 291 217q139 203 139 356q0 66 -46 108t-116 42q-53 0 -123 -23q-6 -2 -196.5 -83t-317.5 -222q-104 -117 -184 -305q-55 -129 -125 -363q-16 -53 -20 -158.5t-15 -150.5q-39 20 -58 63.5t-19 92.5z" />
<glyph unicode="S" horiz-adv-x="911" d="M205 121l8 53q6 -2 63 -27q43 -18 68 -18q131 0 254 150.5t123 285.5q0 182 -198.5 317.5t-198.5 231.5q0 133 272 345t410 212q61 0 89.5 -40t28.5 -103q-33 0 -61 4q-96 14 -102 14q-115 0 -322 -160.5t-207 -271.5q0 -55 100 -127q145 -104 187 -151 q102 -119 102 -283q0 -176 -176 -352t-354 -176q-86 0 -86 96z" />
<glyph unicode="T" horiz-adv-x="854" d="M57 1450q188 53 359 98q219 57 375 84q203 35 368 35q31 0 49.5 -14.5t18.5 -42.5l-6 -62q-98 29 -195 29q-63 0 -131 -10.5t-136.5 -29.5t-141 -375.5t-140.5 -702.5q-90 -387 -188 -441q-20 55 -21 121q0 158 82 414q76 219 155 456.5t79 395.5q0 80 -74 80 q-68 0 -211 -54.5t-166 -54.5q-31 0 -48.5 19.5t-27.5 54.5z" />
<glyph unicode="U" horiz-adv-x="1144" d="M195 274q0 156 65 359q57 180 156 375q82 164 184 325q10 -12 20.5 -34.5t10.5 -41.5q0 -35 -86 -215q-111 -229 -160 -360q-88 -231 -88 -375q0 -90 29 -135q37 -57 120 -57q147 0 312 155q137 129 262 340q104 176 164 334q0 2 30 143q18 86 66 130q20 -6 34.5 -28 t22.5 -48q-14 -68 -102 -254q-70 -145 -129 -256q-94 -178 -152 -266q-104 -162 -206 -242q-131 -104 -283 -105q-162 0 -213 45q-57 51 -57 211z" />
<glyph unicode="V" horiz-adv-x="911" d="M16 1583q0 41 15.5 51.5t64.5 10.5q33 -133 105 -488q61 -303 110 -491q72 -274 154 -471q80 63 237 389q141 305 285 610q168 352 254 451l8 -58q0 -20 -157 -352q-127 -266 -310 -639q-168 -340 -201.5 -399.5t-58.5 -90.5q-45 -57 -82 -57q-33 0 -75 121 q-27 82 -52 164q-47 102 -84 405q-18 145 -55 242q-53 141 -98 299q-60 207 -60 303z" />
<glyph unicode="W" horiz-adv-x="1298" d="M190 268v37q0 115 36 362.5t91 436.5q70 236 148 268l2 -43q2 -18 2 -26q0 -74 -53 -197q-61 -143 -71.5 -214t-31.5 -181q-41 -225 -41 -334q0 -66 7.5 -109t29.5 -94q106 74 195 188q76 98 143 232q39 74 115 250q35 152 72 305q12 29 37.5 45t58.5 25 q0 -129 -54.5 -287t-105.5 -303q-57 -174 -57 -299q0 -111 43 -215q248 121 407 407q82 145 197 479q86 246 151 275l7 -47q0 -143 -129 -425t-302 -509q-193 -252 -333 -279q-68 25 -89.5 87.5t-21.5 160.5v46q0 24 2 48q0 45 -6 86q-98 -141 -154 -219 q-104 -147 -196 -147q-61 0 -84 65q-15 41 -15 125z" />
<glyph unicode="X" horiz-adv-x="1028" d="M213 18q27 111 129 301q86 160 175 331t89 259q0 51 -73.5 188.5t-73.5 207.5l6 49q43 -43 90 -127q102 -182 141 -221q115 168 138 198q88 115 174 168q0 -90 -129 -260t-129 -252q0 -78 58 -276.5t161 -470.5q2 -10 -6.5 -39t-10.5 -35q-74 35 -161 330 q-57 201 -113 403q-78 -78 -197 -336q-88 -190 -153 -375q-10 -27 -23.5 -39t-38.5 -12q-12 0 -28.5 3t-24.5 5z" />
<glyph unicode="Y" horiz-adv-x="890" d="M213 1589q0 16 5 34.5t15 39.5q49 -25 89 -86q29 -45 52 -112.5t51 -137.5t64 -129q23 -37 29 -51q14 -31 14 -57q0 -31 -17 -50.5t-50 -35.5q-18 63 -66 167q-59 133 -71 164q-49 86 -97 172q-10 29 -14 45.5t-4 36.5zM231 57q74 94 129 217q78 195 160 385.5t166 374.5 q74 160 145 273q88 137 254 340l60 -43q-25 -68 -96.5 -155t-139.5 -169q-84 -102 -119.5 -174t-150.5 -356q-143 -358 -193 -469q-106 -242 -155 -281z" />
<glyph unicode="Z" horiz-adv-x="1669" d="M195 96q10 49 303 357q285 295 571 589q336 346 406 445q-49 25 -117 34t-137 9q-88 0 -253 -21.5t-235 -21.5q-53 0 -82 14q-41 20 -51 66q125 29 259 42t284 13h65q170 0 260 -12q154 -20 154 -78q0 -53 -287 -361q-49 -53 -561 -585q-332 -344 -387 -432 q119 0 355.5 82.5t349.5 82.5q80 0 131 -51q-8 -4 -252 -67q-203 -53 -444.5 -113.5t-245.5 -60.5q-10 0 -29 5t-35 11z" />
<glyph unicode="[" horiz-adv-x="1492" d="M444 -78q0 127 79 501t177 667q117 344 227.5 356t159.5 35q20 10 115 65q31 -23 43 -33q23 -18 35 -43q-211 -72 -258 -94q-150 -72 -188 -180q-61 -170 -111 -313q-82 -244 -123 -394q-57 -213 -57 -315q0 -18 -1 -39.5t-1 -44.5q0 -84 17 -137t73 -53q29 0 114 28 q43 14 70 15q53 0 78 -58q-106 -43 -164 -65q-106 -41 -170 -41q-63 0 -89 38.5t-26 104.5z" />
<glyph unicode="\" horiz-adv-x="1261" d="M344 1505l6 41q84 -68 197 -289q98 -193 188 -426q80 -207 119 -348q27 -98 119 -225q47 -63 94 -125l-45 -37q-23 -18 -51 -18q-43 0 -88 96q-12 25 -52 133q-102 279 -202 518q-111 264 -234 506q-20 41 -35.5 87t-15.5 87z" />
<glyph unicode="]" horiz-adv-x="1454" d="M389 -193q27 51 142.5 85t146.5 108q8 23 90 367q68 285 143.5 617.5t75.5 334.5q0 37 -45 51t-123 14q-53 0 -99 -4t-83 -6q-57 0 -107.5 17.5t-83.5 58.5q72 16 171.5 22.5t195.5 6.5q68 0 134.5 -1t131.5 -1q41 0 55.5 -6.5t39.5 -36.5q0 -6 -80 -162 q-86 -170 -99 -207q-33 -100 -84 -387q-16 -86 -86 -500q-43 -256 -55 -284q-18 -45 -110.5 -66t-270.5 -21z" />
<glyph unicode="^" horiz-adv-x="1220" d="M367 1200q-4 35 16 70q2 4 28.5 37.5t94.5 101.5q178 174 204.5 207t45.5 47q33 27 59 27q74 0 170 -230q88 -209 88 -305v-33q-6 -16 -8 -22q-35 10 -52.5 19t-29.5 24.5t-20.5 46.5t-14.5 61q-16 86 -49 159t-86 157l-213 -217q-150 -145 -231 -170z" />
<glyph unicode="_" horiz-adv-x="890" d="M96 96q152 33 317 45.5t363 12.5v-54q0 -61 -17.5 -80.5t-78.5 -19.5l-461 -6q-61 0 -87 21.5t-36 80.5z" />
<glyph unicode="`" horiz-adv-x="696" d="M197 1747q0 14 4 31.5t10 38.5q16 -4 37.5 -22.5t40.5 -33.5q96 -61 147 -125q68 -82 68 -176v-30q-53 20 -146 104q-74 68 -129 133q-32 37 -32 80z" />
<glyph unicode="a" d="M76 190q0 141 152.5 320.5t291.5 179.5q88 0 127 -65q16 -27 49 -142q4 -16 33 -53t29 -61q0 -41 -63.5 -119t-63.5 -117q0 -57 47 -96t108 -39q57 0 134 26.5t147 53.5q-23 -74 -121 -121q-86 -41 -174 -41q-133 0 -200.5 88t-116.5 88q-35 0 -146 -37q-61 -20 -94 -20 q-74 0 -106.5 39.5t-32.5 115.5zM156 188q0 -84 77 -84q121 0 256.5 121t135.5 240q0 53 -27 99t-78 46q-109 0 -236.5 -152.5t-127.5 -269.5z" />
<glyph unicode="b" d="M100 201q0 51 60 194q23 55 47 111q35 88 78 391q35 244 139 379q20 -47 20 -107q0 -68 -71 -311q-33 -113 -33 -188l6 -72q94 104 117 123q72 59 246 59q147 0 230 -67.5t83 -210.5q0 -207 -211 -352q-193 -133 -412 -134q-86 0 -137 38t-67 120l-80 -59q-15 47 -15 86z M272 207q0 -66 54 -96q43 -25 116 -25q176 0 336 119q174 129 174 301q0 98 -69.5 146t-173.5 48q-182 0 -314 -157q-123 -148 -123 -336z" />
<glyph unicode="c" horiz-adv-x="1103" d="M88 131q0 29 43 88q31 43 64 86q117 197 278 363q215 219 375 219q127 0 127 -117l-6 -37q-68 61 -148 62q-135 0 -369.5 -260.5t-256.5 -401.5q76 -20 173 -29.5t197 -9.5h103q57 0 135 6q182 14 225 15q8 0 22.5 -4.5t20.5 -10.5q-8 -27 -4 -43q-104 -29 -230 -43 t-243 -14q-209 0 -357.5 37t-148.5 94z" />
<glyph unicode="d" d="M72 328q0 190 188 278q111 53 342.5 84t249.5 66q10 20 57 274q37 203 119 225l6 -69q0 -117 -59.5 -315.5t-116.5 -381.5q-63 -205 -63 -278q0 -12 3 -27.5t11 -38.5q27 -14 59 -14q10 0 32 2t34 2q29 -6 39 -8q18 -22 18 -50q0 -9 -2 -20q-125 -29 -234.5 -44 t-222.5 -15q-199 0 -313 63q-147 83 -147 267zM154 297q0 -141 147 -184q78 -23 266 -23q35 0 52.5 3t43 15.5t36 31t18.5 53.5q39 176 80 352q0 63 -74 84q-43 12 -127 12q-156 0 -291 -92q-151 -105 -151 -252z" />
<glyph unicode="e" d="M78 360q0 197 150.5 343.5t353.5 146.5q98 0 168 -41q88 -51 88 -141q0 -125 -127 -195q-106 -57 -242 -57q-82 0 -155.5 12t-157.5 37q-2 -10 -5.5 -28.5t-5.5 -39.5q0 -117 43 -202q55 -113 158 -113q109 0 344.5 82t323.5 82q33 0 55.5 -18.5t34.5 -53.5 q-111 0 -249 -43t-279.5 -87t-247.5 -44q-127 0 -195 123q-55 100 -55 237zM213 561q88 -33 144.5 -46t127.5 -13q74 0 166 51q104 57 105 123q0 47 -34 65.5t-85 18.5q-123 0 -230.5 -52.5t-193.5 -146.5z" />
<glyph unicode="f" horiz-adv-x="755" d="M94 618q0 223 284 515t482 292q84 0 129 -71q-39 -20 -128 -38t-105 -22q-178 -47 -373 -282.5t-195 -419.5q0 -86 29 -270.5t29 -253.5q0 -33 -15 -66q-92 25 -122 274q-15 117 -15 342zM231 614q86 37 193.5 53.5t226.5 16.5q152 0 279 -29q-68 -70 -192 -71.5 t-156 -5.5l-213 -33q-51 0 -82 15t-56 54z" />
<glyph unicode="g" horiz-adv-x="911" d="M76 256q0 209 154.5 344t369.5 135q274 0 274 -278q0 -135 -40.5 -324.5t-77.5 -361.5q-8 -49 -8 -109q0 -43 3 -110.5t3 -69.5q0 -53 -3 -74.5t-16 -64.5q-59 27 -83.5 83t-24.5 130q0 84 22 190q53 254 53 315l-6 54q-78 -27 -155 -52q-197 -63 -275 -63 q-111 0 -155 78q-35 59 -35 178zM168 266q0 -76 43 -125t119 -49q86 0 231 62q160 68 193 133q27 53 26 116q0 98 -43 168q-53 84 -145 84q-154 0 -289 -118.5t-135 -270.5z" />
<glyph unicode="h" horiz-adv-x="911" d="M84 168q0 111 59 274q76 213 88 273q33 178 66 358q23 104 49.5 179t77.5 161l41 -22q0 -156 -58.5 -343.5t-113.5 -361.5q-61 -207 -62 -358q90 145 265 276q197 147 348 148q45 0 61 -70q8 -37 8 -59q0 -72 -84 -305.5t-133 -260.5q-8 35 -8 84q0 86 53.5 250t53.5 246 q-39 -4 -78 -18.5t-80 -38.5q-195 -119 -289 -254q-106 -164 -213 -326q-51 72 -51 168z" />
<glyph unicode="i" horiz-adv-x="485" d="M92 51q0 127 80 338q88 231 176 287q14 -43 14 -74q0 -59 -45 -149q-57 -113 -65 -146l-43 -176q-14 -47 -42 -81t-71 -48q-5 20 -4 38q-1 5 0 11zM227 905q0 100 67.5 157.5t170.5 57.5q-10 -47 -42 -78.5t-54.5 -56t-51 -98.5t-67.5 -96q-23 57 -23 114z" />
<glyph unicode="j" horiz-adv-x="542" d="M-403 -418q0 61 57 90q12 -109 45 -149q41 -51 143 -51q92 0 152 59q47 47 82 141q18 45 65 109q59 80 72 102q76 135 98 271q16 96 17 286q0 90 11 147.5t52 104.5q12 -14 28.5 -30.5t16.5 -32.5q0 -158 -16 -326q-23 -219 -62 -317q-66 -156 -112 -248 q-84 -162 -178 -262q-115 -123 -228 -123q-90 0 -166.5 70.5t-76.5 158.5zM379 975q0 33 20 67q14 25 45 58q27 -12 45.5 -19.5t32.5 -17.5q-37 -115 -114 -193q-10 27 -19.5 54.5t-9.5 50.5z" />
<glyph unicode="k" d="M86 113q0 39 27 98q37 82 41 96q33 135 74.5 276.5t87.5 298t68 264t32 161.5q18 94 47 161q25 -20 35 -47.5t10 -62.5q0 -47 -16.5 -106.5t-33 -124t-44.5 -148.5q-78 -225 -88 -266q-61 -287 -123 -572q-12 -39 -28.5 -68.5t-43.5 -54.5q-18 18 -31.5 45t-13.5 50z M387 539q37 8 391 143q145 55 183 55q18 0 42.5 -18.5t24.5 -36.5q-2 -12 -22 -53q-12 -23 -17 -33q-23 10 -37 16q-35 12 -67 13q-63 0 -223 -73t-193 -73q-27 0 -47.5 16.5t-34.5 43.5zM618 461h25q53 -33 94 -101q31 -51 54.5 -127.5t111.5 -162.5t103 -129 q-102 0 -177 77q-16 16 -165 293q-23 39 -34.5 74t-11.5 76z" />
<glyph unicode="l" horiz-adv-x="542" d="M121 229q0 59 55 310q49 219 113.5 466.5t91.5 311.5q20 51 45 82q33 43 76 51q2 -16 6 -31q2 -12 2 -30q0 -63 -82 -299q-127 -367 -152 -447q-82 -268 -81 -412q0 -27 20 -104q10 -39 10 -59q0 -27 -20.5 -44.5t-48.5 -23.5q-35 114 -35 229z" />
<glyph unicode="m" horiz-adv-x="1378" d="M96 123q0 123 56 328q66 244 139 282q14 -35 14 -80q0 -14 -7 -61t-7 -72q43 12 183 86t282 150q37 0 56 -28t19 -66q0 -35 -2 -52q-8 -45 -14 -90q139 74 203 105q115 57 223 57q53 0 82 -22.5t29 -73.5q0 -74 -72 -309.5t-117 -276.5q-2 10 -4 32.5t-2 43.5 q0 80 45 231.5t45 229.5l-6 61q-229 -27 -399 -147q-203 -143 -203 -353q0 -18 5 -55t5 -45q0 -27 -20 -45q-12 -12 -45 -31q-31 72 -31 148q0 98 72.5 284.5t72.5 282.5q-98 -47 -194 -92q-115 -59 -176 -119q-41 -37 -88 -190.5t-127 -198.5q-17 43 -17 86z" />
<glyph unicode="n" horiz-adv-x="970" d="M86 100q0 66 68.5 290t105.5 267l47 -2q-20 -92 -39 -184l2 -29q70 16 166 90l164 127q98 66 178 66t128 -61.5t48 -145.5q0 -70 -42 -214t-42 -216q-6 -74 -8 -84q-8 -53 -28 -80q-78 51 -78 142q0 55 69 251q33 92 33 156q0 59 -22 105q-29 57 -82 57q-68 0 -238 -127 q-68 -49 -225 -182q-45 -37 -121 -211q-33 -74 -72 -97q-4 18 -8 41t-4 41z" />
<glyph unicode="o" horiz-adv-x="1280" d="M78 227q0 207 201.5 417t408.5 210q94 0 160.5 -47t66.5 -129q0 -14 -4 -39q113 -41 215 -100q150 -86 150 -156q0 -61 -211 -154q-172 -76 -413.5 -143.5t-321.5 -67.5q-117 0 -178 45q-74 53 -74 164zM158 252q0 -82 43 -129t125 -47q127 0 460 117q369 129 369 215 q0 88 -212 139t-537 51q-27 0 -48.5 -1t-35.5 -9q-39 -18 -101.5 -151.5t-62.5 -184.5zM444 678q117 -41 234 -41q94 0 176 20q-70 72 -120 97.5t-97 25.5q-53 0 -107 -30q-39 -23 -86 -72z" />
<glyph unicode="p" horiz-adv-x="1028" d="M-27 -653q0 109 41 303q31 147 64 293q25 188 49 379q49 276 145 315q0 -29 3.5 -44t15.5 -54q102 66 289 145q213 92 301 92q76 0 114.5 -59.5t38.5 -138.5q0 -156 -162 -353q-168 -205 -319 -205q-72 0 -109 62q-29 49 -38 127q20 -10 75 -70q47 -51 82 -51 q113 0 250 177t137 294q0 135 -137 135q-76 0 -178 -37q-78 -29 -170 -77q-215 -113 -291 -424q-20 -84 -65 -543q-29 -291 -127 -348q-9 35 -9 82z" />
<glyph unicode="q" horiz-adv-x="1087" d="M76 250q0 174 231 285q190 90 389 90q160 0 246 -71t86 -228q0 -55 -45 -113q-98 -123 -98 -139q0 -164 33 -285q49 -184 161 -184q37 0 73 12t69 35q0 -92 -54 -125q-37 -23 -133 -23h-78q-66 0 -122 15q10 33 14 70.5t4 74.5q0 80 -14 164q-2 12 -62 268 q-96 -39 -198.5 -60.5t-198.5 -21.5q-135 0 -211 49q-92 60 -92 187zM133 236q0 -82 76 -113q53 -23 149 -23q412 0 431.5 142.5t140.5 240.5q-45 39 -107.5 59.5t-126.5 20.5q-170 0 -346 -80q-217 -97 -217 -247zM891 231q49 20 64.5 36t33.5 61l-78 39q-20 -77 -20 -136z " />
<glyph unicode="r" horiz-adv-x="833" d="M57 37q0 84 73 301t122 278q6 -31 22.5 -49t44.5 -18q33 0 92.5 24.5t90.5 24.5h311q16 0 23 -12q-18 -41 -62.5 -57.5t-105.5 -16.5q-29 0 -78 4t-68 4q-170 0 -248 -133q-33 -55 -75 -252q-31 -135 -84 -135q-23 0 -40.5 8.5t-17.5 28.5z" />
<glyph unicode="s" horiz-adv-x="794" d="M76 -2q6 37 21.5 66.5t43.5 39.5q217 74 221 76q102 43 199 127q-88 68 -176 137q-106 96 -106 183q0 92 196 207q182 106 281 106q31 0 50 -17.5t28 -52.5q-137 -47 -273 -94q-205 -82 -205 -147q0 -57 133.5 -153.5t133.5 -170.5q0 -90 -226 -199q-190 -92 -321 -108z " />
<glyph unicode="t" horiz-adv-x="854" d="M57 637q139 23 281 47q111 27 160 93.5t88 250.5q20 102 43 164q35 92 88 141q20 -39 20 -88q0 -74 -78 -293q-39 -111 -38 -178q86 18 163.5 30.5t141.5 12.5q14 0 19 -17.5t5 -43.5v-23q-328 0 -401 -100q-23 -31 -127 -258q-53 -145 -86 -221q-63 -141 -141 -154 l-5 43q0 94 60 223q86 184 174 371q-45 0 -105 -14q-143 -35 -172 -35q-37 0 -51 8q-10 6 -39 41z" />
<glyph unicode="u" horiz-adv-x="833" d="M74 197q0 98 102 321q117 252 211 273q-8 -57 -160 -377q-66 -137 -65 -209q0 -59 45 -86t108 -27q115 0 209 109q37 43 152 227q90 145 158 188q0 -182 -175 -391q-180 -217 -358 -217q-84 0 -151 51q-76 58 -76 138z" />
<glyph unicode="v" horiz-adv-x="776" d="M76 846q-2 6 -2 13q0 13 7 32q11 29 25 35q53 -29 166 -334q74 -201 76 -205q139 197 223 300.5t127 103.5q16 0 29 -3q14 -2 49 -14q-162 -188 -180 -213q-102 -129 -152 -235q-41 -111 -63 -170q-41 -106 -90 -156q-39 86 -72 383q-16 141 -45 215z" />
<glyph unicode="w" horiz-adv-x="1144" d="M82 174q0 84 33 371q16 143 16 225q0 55 10.5 85t51.5 50q25 -109 24 -219q0 -74 -22.5 -219t-22.5 -217q0 -31 5 -61.5t16 -53.5q143 113 236 232.5t159 283.5q27 68 53 103q43 57 96 57v-43q0 -104 -72.5 -308t-72.5 -313q0 -18 8 -51q158 33 277 189q51 68 170 288 q88 166 155 201l2 -37q0 -166 -221 -444q-229 -289 -389 -289q-63 0 -85 58.5t-22 146.5v50q0 24 2 44l-4 25q-78 -119 -163 -197q-113 -100 -224 -113q-8 31 -12 74t-4 82z" />
<glyph unicode="x" horiz-adv-x="1202" d="M72 53q0 123 215 303q88 72 178 144q-150 84 -191 112q-119 84 -139 162q66 0 150 -53q227 -143 256 -152q113 106 175 161.5t111 55.5q20 0 45 -12l-254 -274q152 -109 246 -170q129 -84 258 -152q37 -20 58.5 -51t21.5 -70q-100 10 -252 107q-39 25 -243 170 q-127 90 -170 90q-80 0 -226.5 -165t-156.5 -259h-76l-4 25q-2 10 -2 28z" />
<glyph unicode="y" horiz-adv-x="989" d="M76 621q0 8 10 28q6 -8 45 -29.5t41 -21.5q18 -12 217 -293q94 -133 174 -190q190 295 221 327q92 100 187 119q-8 -66 -82 -164q-37 -49 -123 -143q-123 -131 -234 -320q-80 -135 -182 -352q-10 -23 -18 -61q-16 -80 -31 -105q-41 -14 -88 -14q0 117 136 339t136 259 q0 39 -102 174t-201 264q-106 144 -106 183z" />
<glyph unicode="z" horiz-adv-x="1087" d="M78 39q16 55 164 151q41 27 293 172q178 102 239 158q-27 8 -54.5 10t-64.5 2q-25 0 -69.5 -2t-65.5 -2q-109 0 -160 13q-98 25 -108 96q92 0 184 6q276 18 305 19q68 0 103 -11q63 -18 63 -69q0 -96 -250 -265q-221 -147 -350 -182q39 -10 86 -14t92 -4q74 0 245 11 t222 11q76 0 123 -19.5t70 -82.5q-66 0 -154 6q-205 14 -256 14q-82 0 -243.5 -25.5t-233.5 -25.5q-55 0 -95 7.5t-85 25.5z" />
<glyph unicode="{" horiz-adv-x="1337" d="M483 266q0 86 60 146q37 37 137 90q59 31 127 112q39 45 104 140q-25 14 -135 63q-158 70 -194 150q43 27 106 43q193 49 203 53q-2 6 -164 205q-59 74 -59 133q0 100 166.5 231t271.5 131q53 0 78 -43q-104 -31 -252 -131q-174 -119 -174 -198q0 -35 95 -136.5 t95 -171.5q0 -43 -30 -77q-39 -43 -125 -78q106 -49 120 -60q72 -47 72 -106q0 -125 -212 -267.5t-212 -228.5q0 -59 43 -107t103 -48q41 0 129 32q127 47 133 50q-12 -76 -80 -120t-148 -44q-115 0 -186.5 63t-71.5 174z" />
<glyph unicode="|" horiz-adv-x="929" d="M446 1503q0 35 5 41q6 10 34 25q59 -20 84 -156q18 -98 19 -274q0 -88 -2 -151.5t-4 -117.5v-522q0 -35 4 -115.5t4 -87.5q0 -53 -32 -75.5t-93 -32.5v1315q0 31 -4 57q-15 90 -15 94z" />
<glyph unicode="}" horiz-adv-x="1241" d="M369 135q6 35 16 60q14 25 21 36q33 -18 69 -36q76 -39 127 -39q98 0 158 137q47 109 47 223q0 72 -27 113q-33 49 -102 49q-18 0 -53 -9.5t-45 -9.5q-23 0 -39.5 19.5t-20.5 44.5q0 45 150 139q53 33 106 68q-92 10 -182 20q-121 27 -121 103q0 37 133 139t133 240 q0 68 -44 101.5t-115 33.5q-16 0 -45 -8q-63 -18 -80 -19q-25 0 -37 18.5t-12 45.5q0 33 34.5 47t71.5 14q123 0 219 -47q123 -61 123 -170q0 -117 -141 -272l-131 -132l32 -4q12 -2 37 -2q33 0 82 9q113 18 144 18q39 0 54 -5t40 -30q0 -61 -70 -129q-51 -49 -125 -92 q51 -74 83 -163t32 -175q0 -139 -68 -256q-82 -141 -211 -141q-51 0 -123 20q-34 10 -120 41z" />
<glyph unicode="~" horiz-adv-x="1609" d="M346 547q0 45 192.5 124t254.5 79q96 0 158.5 -85t123.5 -85q53 0 254 43q96 20 158 20q49 0 78.5 -12.5t44.5 -50.5q-104 -31 -310 -67t-301 -36q-98 0 -123.5 83t-103.5 83q-57 0 -192.5 -81t-165.5 -81q-20 0 -44 21.5t-24 44.5z" />
<glyph unicode="&#xa1;" horiz-adv-x="794" d="M272 113q0 125 64.5 364.5t64.5 360.5q0 33 -10 75q-25 102 -24 129q0 27 2 37t14 37q131 -86 131 -235q0 -111 -51 -330q-41 -164 -80 -326q-4 -16 -8 -64t-10 -79q-12 -70 -78 -86q-15 56 -15 117zM324 1386q0 55 66.5 85t129.5 30q6 -41 15 -80q0 -37 -44.5 -89 t-80.5 -52q-31 0 -58.5 35.5t-27.5 70.5z" />
<glyph unicode="&#xa2;" horiz-adv-x="1103" d="M88 131q0 29 43 88q31 43 64 86q63 109 163 232q121 147 234 237v166q0 27 -4 47q-14 74 -15 76q0 20 11 41l26 12q45 -14 68.5 -91t23.5 -179q35 16 76 28.5t70 12.5q127 0 127 -117l-6 -37q-68 61 -148 62q-51 0 -116 -41l-7 -203v-422v-35q51 0 123 6q166 14 207 15 q8 0 22.5 -4.5t20.5 -10.5q-8 -27 -4 -43q-92 -25 -183 -40t-177 -15v-37q0 -43 -33 -63q-25 -14 -82 -23v121q-211 0 -357.5 37t-146.5 94zM195 133q76 -20 173 -29.5t197 -9.5h27v578q-137 -119 -259 -283t-138 -256z" />
<glyph unicode="&#xa3;" horiz-adv-x="911" d="M215 121q0 68 66 268q100 307 120 387q-14 20 -30.5 29.5t-36.5 3.5q-25 -6 -49 -31q-39 -37 -43 -41l6 62q8 6 43 41q23 23 49 30q41 12 74 -41q39 170 39 279q0 47 -9 117q-18 156 -18 194q0 39 43 64q57 33 184 33q80 0 121 -69t41 -181q-43 27 -94 110q-39 66 -90 66 q-119 0 -119 -109q0 -47 18 -149q10 -57 11 -94q0 -86 -29 -208t-39 -173q12 -20 23.5 -30.5t25.5 -10.5q6 0 23.5 9t32.5 30q27 37 28 41l-6 -62q-4 -6 -27 -41q-14 -23 -34 -35q-12 -6 -23 -6q-14 0 -28.5 14.5t-26.5 36.5q-20 -86 -39 -172q-6 -23 -74 -288q25 -6 92.5 8 t96.5 14q127 0 233.5 -45t106.5 -106l-5 -48q-41 0 -196 82q-74 39 -129 39q-33 0 -102.5 -49t-106.5 -49q-70 0 -96.5 21.5t-26.5 58.5z" />
<glyph unicode="&#xa4;" horiz-adv-x="1024" d="M37 373q-16 16 20 61q16 20 39 43l35 33q-35 82 -35 180q0 74 25.5 167t73.5 177q-76 80 -104 123t-28 68q0 16 10.5 26.5t28.5 10.5q35 0 93 -52q33 -35 67 -67l4 -10q37 41 81 64.5t93 23.5q29 0 68 -13q57 -20 117 -39q12 -4 39 -4q25 0 47 2l45 4l63 -4q31 25 51 39 q49 33 78 33q14 0 23 -8q12 -12 12 -31q0 -33 -59 -98q29 -49 28 -144q0 -86 -40 -184t-109 -186q63 -72 98 -123q45 -68 45 -109q0 -25 -16 -41t-62 21q-20 16 -43 39l-110 119q-80 -72 -168 -112t-180 -40q-49 0 -93.5 18.5t-74.5 47.5q-76 -51 -121 -52q-25 1 -41 17z M188 690q0 -106 46.5 -181t113.5 -75q170 0 328 131q203 170 203 461q0 39 -97.5 54.5t-302.5 15.5q-121 0 -213 -156q-78 -133 -78 -250z" />
<glyph unicode="&#xa5;" horiz-adv-x="890" d="M213 1583q0 16 5 34.5t15 39.5q49 -25 89 -86q29 -45 52 -112.5t51 -137.5t64 -129q23 -37 29 -51q14 -31 14 -58q0 -31 -17 -50t-50 -36q-18 63 -66 168q-59 133 -71 164q-49 86 -97 172q-10 29 -14 45.5t-4 36.5zM221 514q4 33 14.5 53.5t34.5 20.5q18 0 49 -5t37 -5 q31 0 70 12q61 18 70 20l22 49l57 123q-43 -10 -88 -18t-86 -8q-37 0 -82 10q4 33 14.5 53.5t35.5 20.5q18 0 49 -5.5t37 -5.5q29 0 82 16.5t69 18.5q96 205 123 256q61 123 133 228q84 125 223 292l60 -43q-25 -68 -96.5 -154.5t-139.5 -168.5q-84 -102 -122.5 -181 t-94.5 -219l86 11q55 6 93 -19.5t51 -83.5q-37 0 -113 8.5t-113 8.5l-34 -2l-72 -174l90 10q55 6 93 -19.5t50 -83.5q-37 0 -112.5 8.5t-112.5 8.5l-39 -2q-98 -240 -151 -355q-78 -164 -117 -196l-60 57q57 72 105 170q12 23 125 307q-39 -8 -81 -16t-77 -8q-37 0 -82 10z " />
<glyph unicode="&#xa6;" horiz-adv-x="929" d="M434 741q0 10 10 25l29 8q57 -10 82 -78q18 -51 18 -139q0 -45 -2 -78t-4 -59v-266q0 -14 4 -49t4 -54q0 -27 -32.5 -38t-89.5 -17v668q0 10 -9.5 37.5t-9.5 39.5zM451 1516q6 16 10 20l26 6q53 -8 76 -63q16 -41 17 -117q0 -35 -2.5 -62.5t-4.5 -50.5v-219 q0 -14 4.5 -48t4.5 -36q0 -23 -31 -34t-82 -11v551q-10 31 -18 64z" />
<glyph unicode="&#xa7;" horiz-adv-x="1181" d="M59 -295l7 43q35 -16 53 -22q37 -14 57 -15q111 0 213.5 124t102.5 237q0 150 -167 261t-167 189q0 94 153 226q143 123 283 167q-74 47 -86 56q-74 55 -74 125q0 109 232.5 280.5t351.5 171.5q53 0 77.5 -32.5t24.5 -83.5q-18 0 -67 7t-74 7q-100 0 -276.5 -130 t-176.5 -220q0 -39 167 -159t167 -294q0 -113 -125 -242q-106 -111 -213 -151q27 -39 40 -84t13 -105q0 -145 -147 -290.5t-297 -145.5q-72 0 -72 80zM250 522q0 -45 80 -102q119 -84 151 -119q106 20 199.5 134t93.5 216q0 76 -31.5 128t-87.5 95q-111 -29 -254 -145 q-151 -125 -151 -207z" />
<glyph unicode="&#xa8;" horiz-adv-x="835" d="M129 1530q0 47 34 88t79 41q53 0 95 -44t42 -95q0 -43 -27.5 -66.5t-72.5 -23.5q-61 0 -99 18q-51 27 -51 82zM514 1522q0 47 34 88t79 41q53 0 95 -44t42 -96q0 -43 -27.5 -66.5t-72.5 -23.5q-61 0 -99 19q-51 27 -51 82z" />
<glyph unicode="&#xa9;" horiz-adv-x="1710" d="M96 551q0 166 72 377q80 240 203 383q150 176 323 176q96 0 309.5 -28.5t303.5 -28.5q182 0 243 -107q47 -82 47 -289q0 -408 -258 -727q-295 -365 -776 -364q-229 0 -358 200q-109 170 -109 408zM203 551q0 -176 71 -322q90 -182 246 -182q512 0 778 354 q227 303 228 770q0 94 -93.5 123t-324.5 29q-78 0 -162 -1t-176 -1q-231 0 -408 -274q-159 -248 -159 -496zM342 571q0 186 100 320q72 96 267 237q49 35 94 56q59 27 108 26q66 0 111 -34.5t45 -92.5q-35 0 -111 52q-39 27 -65 26q-121 0 -305.5 -211t-184.5 -336 q0 -133 29 -211q47 -125 162 -124q94 0 299 57t274 57q45 0 70 -16q-33 -47 -322 -103q-256 -49 -370 -49q-111 0 -164 131q-37 92 -37 215z" />
<glyph unicode="&#xaa;" horiz-adv-x="602" d="M43 1014q0 70 77 160t146 90q43 0 64 -33q6 -12 24 -72q2 -8 13 -20q18 -25 18 -37q0 -16 -43 -72q-20 -27 -20 -45q0 -29 24.5 -49.5t52.5 -20.5q29 0 67 13.5t73 27.5q-12 -39 -57.5 -60.5t-90.5 -21.5q-66 0 -98.5 45.5t-59.5 45.5q-18 0 -71 -19q-31 -10 -49 -10 q-70 0 -70 78zM84 1012q0 -41 39 -41q59 0 126.5 61.5t67.5 118.5q0 29 -12 50.5t-39 21.5q-55 0 -118.5 -76t-63.5 -135z" />
<glyph unicode="&#xab;" horiz-adv-x="1579" d="M178 563q0 47 117 172q92 98 235 226l185 159l78 -37q-12 -43 -115 -137t-205 -184q-121 -111 -168 -182q238 -53 258 -60q197 -57 197 -112q0 -27 -20.5 -45.5t-47.5 -18.5q-37 0 -80 21q-119 57 -131 59q-147 25 -178 35q-125 38 -125 104zM737 612q0 47 117 172 q92 98 236 226l184 159l78 -36q-12 -43 -114.5 -137.5t-205.5 -184.5q-121 -111 -168 -182q238 -53 258 -60q197 -57 197 -112q0 -27 -20.5 -45.5t-47.5 -18.5q-37 0 -80 21q-119 57 -131 59q-147 25 -178 35q-125 38 -125 104z" />
<glyph unicode="&#xac;" horiz-adv-x="2457" d="M80 -170v1567h2300v-1567h-2300zM127 -88v-35h317v35h-34q-39 0 -52 4q-33 12 -32 80l2 328q35 0 71.5 -1t73.5 -1l10 51l-4 4h-151v74v51q0 66 17 102.5t73 36.5q35 0 59 -18l23 -111h59q55 164 117 319q45 117 133 318q18 -53 119 -315q76 -201 110 -322h62 q31 125 110 406q94 328 123 370q14 8 60 8v37h-244v-37q29 0 65.5 -5t36.5 -21q0 -51 -77 -316l-82 -266l-238 651h-29l-250 -645q-33 137 -65.5 282.5t-56.5 268.5q-8 12 -7 21q0 20 31 25t45 5h25v37h-293v-37q53 0 66.5 -13t25.5 -73q20 -88 45 -180q57 -215 66 -305 q-47 0 -120 -66.5t-95 -117.5q-8 -20 -11.5 -43t-3.5 -62v-61l-82 -41v-21l82 9l2 -314q0 -66 -17 -81t-85 -15zM440 150q0 -121 70 -203t188 -82q131 0 215 84t84 215q0 115 -73.5 186.5t-190.5 71.5q-125 0 -209 -73.5t-84 -198.5zM553 188q0 80 39 139.5t115 59.5 q98 0 145 -92q37 -72 37 -180q0 -84 -33 -142q-41 -70 -121 -69q-94 0 -143 100q-39 78 -39 184zM973 -88v-35h295l-2 35q-61 0 -81 17.5t-20 64.5q0 12 2 48t2 60v58q0 94 21 131q33 57 129 57q78 0 108 -47q25 -39 25 -127v-111v-24q0 -90 -8 -162h198v35q-59 0 -75.5 10 t-16.5 47q2 41 2 68v188q0 197 -190 197q-51 0 -102.5 -31t-88.5 -78q2 37 3 56q0 33 -11 53q-47 -20 -94 -32.5t-96 -12.5v-35q23 2 35 2q27 0 44 -7t17 -28v-352q0 -23 -10 -35t-43 -12q-29 2 -43 2zM1311 1090q0 -178 236.5 -201t236.5 -154q0 -86 -65.5 -131t-155.5 -45 q-53 0 -107 16q-72 23 -86 60l-2 98h-39v-67v-29q0 -41 -6 -82q104 -43 217 -43q55 0 105 12q10 -82 10 -147q-39 -23 -92 -39v-25h92v-321q0 -127 131 -127q16 0 36.5 4t37.5 8l55 70l-17 22q-27 -31 -65 -30q-39 0 -60.5 28.5t-21.5 108.5v26v222q16 0 52 2t52 2 q31 0 60 -6l12 55h-176q0 49 2 99t8 95q57 47 86 91q37 55 37 118q0 180 -235.5 200.5t-235.5 152.5q0 78 55.5 120.5t137.5 42.5q39 0 90 -15t78 -38q10 -23 10 -69v-41h37q0 61 3 87.5t15 75.5q-109 43 -227 43q-127 0 -209 -59q-92 -67 -92 -190zM1858 522h327v37h-33 q-43 0 -59 10.5t-16 55.5v512q0 20 -1 40.5t-1 39.5q0 49 19.5 64t90.5 15v37h-327v-37q76 0 92 -14t16 -76v-49v-528q0 -45 -19.5 -57.5t-60.5 -12.5h-28v-37zM1927 254q0 -109 159 -139.5t159 -104.5q0 -51 -37 -78.5t-90 -27.5q-86 0 -117 30.5t-31 114.5h-33 q0 -23 -4 -77t-4 -60q0 -20 46 -33.5t122 -13.5q96 0 162 45q78 53 78 145q0 102 -160 135t-160 103q0 43 32 68.5t77 25.5q33 0 63.5 -15.5t55.5 -43.5q6 -29 8 -35q2 -12 2 -37l33 -2q0 35 6 77t8 64q-86 27 -164 27q-90 0 -145 -37q-66 -45 -66 -131z" />
<glyph unicode="&#xad;" horiz-adv-x="950" d="M84 733q6 37 19.5 62.5t46.5 25.5q18 0 55 -6t55 -6q33 0 72 10q113 31 123 31l221 20q16 2 22 2q59 0 104.5 -31.5t59.5 -88.5q-45 0 -108 6q-147 14 -183 14q-68 0 -195.5 -25.5t-187.5 -25.5q-51 0 -104 12z" />
<glyph unicode="&#xae;" horiz-adv-x="1710" d="M96 551q0 166 72 377q80 240 203 383q150 176 323 176q96 0 309.5 -28.5t303.5 -28.5q182 0 243 -107q47 -82 47 -289q0 -408 -258 -727q-295 -365 -776 -364q-229 0 -358 200q-109 170 -109 408zM203 551q0 -176 71 -322q90 -182 246 -182q512 0 778 354 q227 303 228 770q0 94 -93.5 123t-324.5 29q-78 0 -162 -1t-176 -1q-231 0 -408 -274q-159 -248 -159 -496zM354 432q0 72 118 353.5t169 316.5q-2 -25 -11 -68t-12 -53q178 119 238 152q78 41 162 65q59 -25 121 -47q53 -31 53 -109q0 -106 -96.5 -218.5t-196.5 -225.5 q0 -37 115 -201q55 -80 55 -123l-2 -22q-49 14 -187.5 227t-138.5 238q25 0 69 -10.5t54 -10.5q92 0 189 133q90 125 90 222q0 41 -30 66.5t-75 25.5q-47 0 -106 -23q-72 -31 -103 -43q-174 -70 -270 -225q-59 -98 -131 -326q-8 -23 -11 -89t-11 -101q-27 12 -39.5 37.5 t-12.5 58.5z" />
<glyph unicode="&#xaf;" horiz-adv-x="770" d="M78 1436q4 31 13 46t34 15q12 0 36.5 -4t39.5 -4q25 0 71.5 13.5t65.5 15.5l154 14q47 4 82.5 -17.5t46.5 -66.5q-39 0 -111 7t-92 7q-45 0 -101 -10q-133 -25 -165 -25q-41 1 -74 9z" />
<glyph unicode="&#xb0;" horiz-adv-x="747" d="M152 983q0 76 74.5 155t150.5 79q39 0 64.5 -20.5t17.5 -59.5q41 -14 80 -37q55 -33 55 -58q0 -35 -147.5 -86t-202.5 -51q-43 0 -67.5 18.5t-24.5 59.5zM180 993q0 -66 62 -65q47 0 170 43q137 49 137 80q0 33 -79 52t-198 19q-25 0 -32 -4q-14 -6 -37 -56.5t-23 -68.5z M287 1151q41 -14 86 -14l65 6q-23 25 -37 33q-20 14 -43 14q-20 0 -36.5 -9.5t-34.5 -29.5z" />
<glyph unicode="&#xb1;" horiz-adv-x="1118" d="M16 713q53 12 267 49q90 16 159 31q92 20 129 170.5t84 177.5q14 -41 15 -86q0 -27 -3 -69t-3 -44q0 -47 19 -70.5t67 -23.5q35 0 108.5 12t110.5 12q76 0 105.5 -23.5t29.5 -94.5q-119 18 -143 20q-72 8 -144 8q-178 0 -209 -133q-37 -162 -86 -186q-25 45 -32 84t-7 92 v42v34q-49 0 -127 -19q-172 -41 -215 -41q-45 0 -75 11.5t-50 46.5zM150 311q6 37 19 62.5t46 25.5q18 0 55 -6t56 -6q33 0 71 10q113 31 123 31l221 21q16 2 23 2q59 0 104 -32t60 -89q-45 0 -109 6q-147 14 -182 14q-68 0 -196 -25.5t-187 -25.5q-51 0 -104 12z" />
<glyph unicode="&#xb2;" horiz-adv-x="448" d="M4 975q119 41 206 167t87 257q0 61 -51 61q-55 0 -101 -39q-18 -16 -112 -149l-6 37q0 70 86 135t155 65q33 0 46.5 -24.5t13.5 -63.5q0 -115 -59.5 -237.5t-147.5 -208.5q23 -8 45 -10t53 -2q18 0 56 2t57 2q20 0 47 -4.5t53 -10.5q-27 -20 -81 -27t-132 -7h-57 q-27 0 -51 2q-41 0 -71 10t-36 45z" />
<glyph unicode="&#xb3;" horiz-adv-x="393" d="M-16 1430v38q68 16 152.5 27.5t146.5 11.5q29 0 47 -8t18 -33q0 -39 -72 -96q-174 -137 -188 -174q76 -23 113 -45q66 -41 65 -94q0 -55 -77.5 -125t-133.5 -70q-43 0 -43 45q57 0 127 45q78 51 78 105q0 41 -53 63q-117 49 -117 84q0 37 148 158q80 66 98 96l-60 6 q-41 0 -92 -10q-124 -24 -157 -24z" />
<glyph unicode="&#xb4;" horiz-adv-x="745" d="M236 1360q8 25 20 50.5t31 57.5q39 66 86 113q63 61 125 61q16 0 34 -6l-34 -67q-49 -86 -107 -139q-75 -70 -155 -70z" />
<glyph unicode="&#xb5;" horiz-adv-x="737" d="M57 188q0 12 2 59.5t2 84.5q0 154 31 290t84 171q8 -35 8 -88q0 -63 -18.5 -207t-18.5 -207q0 -184 115 -185q160 0 244 267q115 365 149 409q20 -61 21 -135q0 -225 -103 -414q-119 -217 -299 -217q-20 0 -92 29q-12 4 -35 14l-2 -186q-27 4 -39 8q-41 16 -40 51 q0 35 4 84.5t8 92.5q-21 26 -21 79z" />
<glyph unicode="&#xb6;" horiz-adv-x="1351" d="M-96 1589q0 12 4 29q31 72 108 72q49 0 103 -29q86 -45 200 -168q37 -41 175 -203q45 35 75 35q12 0 30.5 -5t35.5 -9q-18 -33 -30.5 -65t-12.5 -58q0 -51 37 -111q0 -39 -10.5 -106.5t-10.5 -102.5q0 -14 2 -30.5t2 -26.5q8 -63 22.5 -294.5t14.5 -362.5 q0 -129 -12 -164q-8 -29 -29 -56q-55 35 -71.5 124t-16.5 247q0 43 2 138.5t2 146.5q0 223 -22 362q-33 203 -117 342q-98 164 -279 258q-33 16 -73 27l-37 -20q0 -135 156 -392q141 -231 276 -360q-14 -12 -31.5 -19.5t-38.5 -7.5q-23 0 -39 11q-70 35 -239 352 q-176 327 -176 446zM680 1192q0 18 10 43l29 6q59 -29 84 -145q18 -86 18 -238q0 -78 -2 -132t-4 -101v-451q0 -29 4 -98.5t4 -77.5q0 -45 -31.5 -58.5t-93.5 -13.5v1133q0 27 -4 49q-14 80 -14 84z" />
<glyph unicode="&#xb7;" horiz-adv-x="491" d="M145 838q0 47 34 88t79 41q53 0 95 -44t42 -96q0 -43 -27.5 -66.5t-72.5 -23.5q-61 0 -98 19q-52 27 -52 82z" />
<glyph unicode="&#x2219;" horiz-adv-x="491" d="M145 838q0 47 34 88t79 41q53 0 95 -44t42 -96q0 -43 -27.5 -66.5t-72.5 -23.5q-61 0 -98 19q-52 27 -52 82z" />
<glyph unicode="&#xb8;" horiz-adv-x="565" d="M203 -219q0 27 60.5 51.5t60.5 52.5q0 31 -31 78t-31 60q0 16 10 30q6 8 25 25q45 -33 92 -64q53 -43 53 -82q0 -94 -45 -141t-127 -47q-31 0 -49 8.5t-18 28.5z" />
<glyph unicode="&#xb9;" horiz-adv-x="262" d="M63 733q0 66 47.5 182.5t54.5 184t13 123t17.5 95.5t21.5 58q18 31 43 41q12 -23 12 -45q0 -25 -16 -61q-37 -86 -70 -242q-47 -219 -52 -239.5t-7 -53.5t-4 -37q-14 -41 -55 -47z" />
<glyph unicode="&#xba;" horiz-adv-x="622" d="M12 1077q0 102 101.5 208t203.5 106q45 0 79 -24t34 -64q0 -14 -2 -21q57 -20 107 -49q76 -43 75 -78q0 -45 -207 -117q-193 -66 -266 -65q-57 0 -91 24.5t-34 79.5zM51 1090q0 -88 84 -89q61 0 238.5 61.5t177.5 104.5t-106.5 69t-268.5 26q-37 0 -50 -7.5t-44 -73.5 t-31 -91zM195 1303q55 -20 116 -21q51 0 88 10q-25 25 -52.5 43.5t-55.5 18.5q-29 0 -53 -15q-14 -7 -43 -36z" />
<glyph unicode="&#xbb;" horiz-adv-x="1419" d="M82 268q0 84 121 211q45 47 227 207q125 109 125 141q0 76 -157.5 231.5t-157.5 192.5q0 10 14 29.5t25 19.5q25 0 51 -24q20 -18 39 -45q176 -190 273 -299t97 -133q0 -18 -9 -33.5t-32 -38.5q-14 -10 -57 -33q-25 -12 -35 -18q-127 -76 -214 -166t-249 -354 q-23 29 -37 53q-24 39 -24 59zM616 256q0 84 121 211q45 47 228 207q125 109 125 141q0 76 -158 231.5t-158 192.5q0 10 14.5 29.5t24.5 19.5q25 0 51 -24q20 -18 39 -45q176 -190 273.5 -299t97.5 -134q0 -18 -9.5 -33.5t-31.5 -37.5q-14 -10 -57 -33q-25 -12 -35 -18 q-127 -76 -214 -166t-249 -355q-23 29 -37 54q-25 39 -25 59z" />
<glyph unicode="&#xbc;" horiz-adv-x="1019" d="M43 37q0 25 8 47q16 78 58 170q16 35 81 162q35 61 98.5 162.5t96.5 156.5q82 156 166 314q43 68 59.5 86t40.5 32q6 -25 6 -28q2 -12 2 -33q0 -10 -4 -35q-6 -29 -24 -65q-10 -18 -66 -111q-35 -59 -174 -295q-111 -188 -172 -299q-25 -43 -49 -102q-35 -80 -47 -105 q-29 -57 -80 -57zM80 743q0 66 47 182.5t54 184.5t13.5 123t17.5 95t21 58q18 31 43 41q12 -23 13 -45q0 -25 -17 -61q-37 -86 -69 -242q-47 -219 -52.5 -239.5t-7.5 -53t-4 -36.5q-14 -41 -55 -48zM506 393q0 39 60.5 184.5t84.5 157.5l4 -35q0 -43 -31.5 -113.5 t-58.5 -131.5q23 -4 35 -9q145 0 178 107q43 139 58 149l4 -24q0 -10 -7.5 -46t-7.5 -54q0 -29 21.5 -42.5t38.5 -25.5q-8 -8 -24.5 -19.5t-24.5 -15.5q-23 -14 -67 -120.5t-49 -138.5t-5 -40q2 -31 2 -45q0 -39 -45 -57q-10 35 -10 57q0 41 53 174q27 66 26 107l-2 32z" />
<glyph unicode="&#xbd;" horiz-adv-x="1050" d="M37 25q0 25 8 47q16 78 57 170q16 35 82 161q35 61 98.5 163t96.5 157q82 156 166 313q43 68 59.5 86.5t40.5 32.5q6 -25 6 -29q2 -12 2 -32q0 -10 -4 -35q-6 -29 -24 -66q-10 -18 -66 -110q-35 -59 -174 -295q-111 -188 -172 -299q-25 -43 -49 -103q-35 -80 -47 -104 q-29 -57 -80 -57zM76 754q0 66 47 182.5t54 184t13.5 122.5t17.5 95t21 59q18 31 43 41q12 -23 13 -45q0 -25 -17 -62q-37 -86 -69 -241q-47 -219 -52.5 -240t-7.5 -53.5t-4 -36.5q-14 -41 -55 -47zM547 197q119 41 206 166.5t87 257.5q0 61 -52 61q-55 0 -100 -39 q-18 -16 -113 -149l-6 36q0 70 86 135.5t156 65.5q33 0 46 -24.5t13 -63.5q0 -115 -59 -237.5t-147 -208.5q23 -8 45 -10.5t53 -2.5q18 0 56 2t56 2q20 0 47 -4t54 -10q-27 -20 -81 -27.5t-132 -7.5h-57q-27 0 -52 2q-41 0 -70.5 10.5t-35.5 45.5z" />
<glyph unicode="&#xbe;" horiz-adv-x="1130" d="M86 1413v39q68 16 153 27.5t146 11.5q29 0 47.5 -8t18.5 -33q0 -39 -72 -96q-174 -137 -189 -174q76 -23 113 -45q66 -41 66 -95q0 -55 -78 -124.5t-133 -69.5q-43 0 -43 45q57 0 127 45q78 51 77 104q0 41 -53 64q-117 49 -116 84q0 37 147 158q80 66 98 96l-59 6 q-41 0 -92 -10q-125 -25 -158 -25zM156 31q0 25 8 47q16 78 57 170q16 35 82 162q35 61 98.5 162.5t96.5 156.5q82 156 166 313q43 68 59 86.5t41 32.5q6 -25 6 -28q2 -12 2 -33q0 -10 -4 -35q-6 -29 -25 -66q-10 -18 -65 -110q-35 -59 -174 -295q-111 -188 -172 -299 q-25 -43 -49 -102q-35 -80 -47 -105q-29 -57 -80 -57zM662 391q0 39 60 184.5t85 157.5l4 -35q0 -43 -31.5 -113.5t-58.5 -131.5q23 -4 35 -9q145 0 178 107q43 139 57 149l4 -24q0 -10 -7 -46t-7 -55q0 -29 21.5 -42t37.5 -25q-8 -8 -24.5 -19.5t-24.5 -15.5 q-23 -14 -66.5 -120.5t-49 -138.5t-5.5 -40q2 -31 2 -45q0 -39 -45 -57q-10 35 -10 57q0 41 53 174q27 66 27 107l-2 32z" />
<glyph unicode="&#xbf;" horiz-adv-x="1298" d="M281 238q0 109 133 225q12 10 223 160q-94 133 -108.5 175t-14.5 197q0 59 18.5 102.5t65.5 67.5q12 -61 17.5 -105t5.5 -85q0 -20 -2.5 -48t-2.5 -36q0 -49 29 -96q37 -59 148 -191q-154 -72 -256 -145q-168 -119 -168 -215t141 -144q100 -33 225 -32q37 0 113 16 t115 16q68 0 102 -55q-84 -39 -209 -53q-76 -8 -219 -8q-139 0 -236 55q-120 70 -120 199zM440 1430q0 41 52.5 91t91.5 50q35 0 51 -22.5t16 -57.5q0 -53 -22 -96q-29 -53 -78 -54q-41 0 -76 25t-35 64z" />
<glyph unicode="&#xc0;" horiz-adv-x="1609" d="M195 78q74 92 154.5 184t160.5 182q117 133 160 185q72 86 184 241q98 135 180 246q113 154 189 240q6 8 29.5 25.5t33.5 17.5q68 0 105 -96q45 -117 45 -383q0 -78 -2 -128.5t-4 -93.5q0 -49 5 -83.5t25 -63.5q70 -25 93.5 -40t33.5 -40q-2 -31 -16 -68q-55 14 -115 41 q-8 -35 -8 -79q0 -49 22.5 -145.5t22.5 -145.5q0 -37 -3 -52.5t-13 -37.5q-59 16 -81 63t-22 119q0 37 2 70l4 65q0 74 -20 105q-27 41 -96 40q-92 0 -238 -24q-315 -53 -405 -53q-66 0 -250 -197q-88 -94 -176 -94zM639 485q68 -31 143 -30q55 0 136 14q180 33 227 33 q154 0 203 59q37 45 36 172q0 25 -1 52.5t-1 58.5v16q0 166 -41 256q-33 74 -100 119q-102 -127 -202.5 -248t-202.5 -248q-136 -168 -197 -254zM1006 1813q0 14 4 31.5t10 38.5q16 -4 37.5 -22.5t40.5 -33.5q96 -61 147 -125q68 -82 68 -176v-30q-53 20 -146 104 q-74 68 -129 133q-32 37 -32 80z" />
<glyph unicode="&#xc1;" horiz-adv-x="1609" d="M195 78q74 92 154.5 184t160.5 182q117 133 160 185q72 86 184 241q98 135 180 246q113 154 189 240q6 8 29.5 25.5t33.5 17.5q68 0 105 -96q45 -117 45 -383q0 -78 -2 -128.5t-4 -93.5q0 -49 5 -83.5t25 -63.5q70 -25 93.5 -40t33.5 -40q-2 -31 -16 -68q-55 14 -115 41 q-8 -35 -8 -79q0 -49 22.5 -145.5t22.5 -145.5q0 -37 -3 -52.5t-13 -37.5q-59 16 -81 63t-22 119q0 37 2 70l4 65q0 74 -20 105q-27 41 -96 40q-92 0 -238 -24q-315 -53 -405 -53q-66 0 -250 -197q-88 -94 -176 -94zM639 485q68 -31 143 -30q55 0 136 14q180 33 227 33 q154 0 203 59q37 45 36 172q0 25 -1 52.5t-1 58.5v16q0 166 -41 256q-33 74 -100 119q-102 -127 -202.5 -248t-202.5 -248q-136 -168 -197 -254zM1307 1520q8 25 20 50.5t31 57.5q39 66 86 113q63 61 125 61q16 0 34 -6l-34 -67q-49 -86 -107 -139q-75 -70 -155 -70z" />
<glyph unicode="&#xc2;" horiz-adv-x="1609" d="M195 78q74 92 154.5 184t160.5 182q117 133 160 185q72 86 184 241q98 135 180 246q113 154 189 240q6 8 29.5 25.5t33.5 17.5q68 0 105 -96q45 -117 45 -383q0 -78 -2 -128.5t-4 -93.5q0 -49 5 -83.5t25 -63.5q70 -25 93.5 -40t33.5 -40q-2 -31 -16 -68q-55 14 -115 41 q-8 -35 -8 -79q0 -49 22.5 -145.5t22.5 -145.5q0 -37 -3 -52.5t-13 -37.5q-59 16 -81 63t-22 119q0 37 2 70l4 65q0 74 -20 105q-27 41 -96 40q-92 0 -238 -24q-315 -53 -405 -53q-66 0 -250 -197q-88 -94 -176 -94zM639 485q68 -31 143 -30q55 0 136 14q180 33 227 33 q154 0 203 59q37 45 36 172q0 25 -1 52.5t-1 58.5v16q0 166 -41 256q-33 74 -100 119q-102 -127 -202.5 -248t-202.5 -248q-136 -168 -197 -254zM1034 1517q-2 18 6 32.5t27.5 35t77.5 67.5q137 111 164 138q16 16 34 28q29 18 47 19q59 0 136 -150q70 -137 69 -198l-6 -37 q-29 8 -35 10q-18 6 -30.5 17.5t-17.5 28.5t-9 42q-12 57 -37.5 103t-71.5 104q-84 -72 -167 -141q-121 -96 -185 -113z" />
<glyph unicode="&#xc3;" horiz-adv-x="1609" d="M195 78q74 92 154.5 184t160.5 182q117 133 160 185q72 86 184 241q98 135 180 246q113 154 189 240q6 8 29.5 25.5t33.5 17.5q68 0 105 -96q45 -117 45 -383q0 -78 -2 -128.5t-4 -93.5q0 -49 5 -83.5t25 -63.5q70 -25 93.5 -40t33.5 -40q-2 -31 -16 -68q-55 14 -115 41 q-8 -35 -8 -79q0 -49 22.5 -145.5t22.5 -145.5q0 -37 -3 -52.5t-13 -37.5q-59 16 -81 63t-22 119q0 37 2 70l4 65q0 74 -20 105q-27 41 -96 40q-92 0 -238 -24q-315 -53 -405 -53q-66 0 -250 -197q-88 -94 -176 -94zM639 485q68 -31 143 -30q55 0 136 14q180 33 227 33 q154 0 203 59q37 45 36 172q0 25 -1 52.5t-1 58.5v16q0 166 -41 256q-33 74 -100 119q-102 -127 -202.5 -248t-202.5 -248q-136 -168 -197 -254zM973 1548q0 20 112.5 58.5t145.5 38.5q55 0 91 -40t73 -40t145 18q59 10 93 11q29 0 46 -5.5t25 -23.5q-55 -12 -181 -30.5 t-173 -18.5q-57 0 -71.5 39t-59.5 39q-31 0 -137 -52q-51 -25 -70 -24q-10 0 -18 4q-21 12 -21 26z" />
<glyph unicode="&#xc4;" horiz-adv-x="1609" d="M195 78q74 92 154.5 184t160.5 182q117 133 160 185q72 86 184 241q98 135 180 246q113 154 189 240q6 8 29.5 25.5t33.5 17.5q68 0 105 -96q45 -117 45 -383q0 -78 -2 -128.5t-4 -93.5q0 -49 5 -83.5t25 -63.5q70 -25 93.5 -40t33.5 -40q-2 -31 -16 -68q-55 14 -115 41 q-8 -35 -8 -79q0 -49 22.5 -145.5t22.5 -145.5q0 -37 -3 -52.5t-13 -37.5q-59 16 -81 63t-22 119q0 37 2 70l4 65q0 74 -20 105q-27 41 -96 40q-92 0 -238 -24q-315 -53 -405 -53q-66 0 -250 -197q-88 -94 -176 -94zM639 485q68 -31 143 -30q55 0 136 14q180 33 227 33 q154 0 203 59q37 45 36 172q0 25 -1 52.5t-1 58.5v16q0 166 -41 256q-33 74 -100 119q-102 -127 -202.5 -248t-202.5 -248q-136 -168 -197 -254zM979 1612q0 47 34 88t79 41q53 0 95 -44t42 -95q0 -43 -27.5 -66.5t-72.5 -23.5q-61 0 -99 18q-51 27 -51 82zM1364 1604 q0 47 34 88t79 41q53 0 95 -44t42 -96q0 -43 -27.5 -66.5t-72.5 -23.5q-61 0 -99 19q-51 27 -51 82z" />
<glyph unicode="&#xc5;" horiz-adv-x="1609" d="M195 78q74 92 154.5 184t160.5 182q117 133 160 185q72 86 184 241q98 135 180 246q113 154 189 240q6 8 29.5 25.5t33.5 17.5q68 0 105 -96q45 -117 45 -383q0 -78 -2 -128.5t-4 -93.5q0 -49 5 -83.5t25 -63.5q70 -25 93.5 -40t33.5 -40q-2 -31 -16 -68q-55 14 -115 41 q-8 -35 -8 -79q0 -49 22.5 -145.5t22.5 -145.5q0 -37 -3 -52.5t-13 -37.5q-59 16 -81 63t-22 119q0 37 2 70l4 65q0 74 -20 105q-27 41 -96 40q-92 0 -238 -24q-315 -53 -405 -53q-66 0 -250 -197q-88 -94 -176 -94zM639 485q68 -31 143 -30q55 0 136 14q180 33 227 33 q154 0 203 59q37 45 36 172q0 25 -1 52.5t-1 58.5v16q0 166 -41 256q-33 74 -100 119q-102 -127 -202.5 -248t-202.5 -248q-136 -168 -197 -254zM1110 1604q0 94 92 192.5t188 98.5q51 0 82 -26.5t23 -73.5q82 -33 125 -64t43 -55q0 -39 -188.5 -104.5t-249.5 -65.5 q-53 0 -84 22.5t-31 75.5zM1147 1614q0 -82 78 -82q55 0 219 57.5t164 96.5q0 41 -98.5 64.5t-248.5 23.5q-33 0 -39 -4q-18 -8 -46.5 -70.5t-28.5 -85.5zM1278 1813q57 -20 108 -21q37 0 82 11q-27 27 -45 39q-27 18 -55 18q-25 0 -46 -12t-44 -35z" />
<glyph unicode="&#xc6;" horiz-adv-x="2347" d="M195 78q74 92 154.5 184t160.5 182q117 133 160 185q72 86 184 241q98 135 180 246q113 154 189 240q6 8 29.5 25.5t33.5 17.5l27 -4q0 43 20.5 68.5t65.5 25.5q27 -84 82 -174l602 213q16 -6 40.5 -12.5t43.5 -8.5q20 -16 41.5 -43.5t32.5 -52.5q-16 -2 -38 -3t-34 -1 q-23 0 -70 2t-71 2q-68 0 -323 -109.5t-249 -142.5q12 -104 16.5 -219t4.5 -213v-184l-7 -326q8 -35 11 -53q12 -68 12 -90q0 -37 -3 -52.5t-13 -37.5q-59 16 -81 63t-22 119q0 37 2 70l4 65q0 74 -20 105q-27 41 -96 40q-92 0 -238 -24q-315 -53 -405 -53q-66 0 -250 -197 q-88 -94 -176 -94zM639 485q68 -31 143 -30q55 0 136 14q180 33 227 33q154 0 203 59q37 45 36 172q0 25 -1 52.5t-1 58.5v16q0 166 -41 256q-33 74 -100 119q-102 -127 -202.5 -248t-202.5 -248q-136 -168 -197 -254zM1593 715q215 115 262 133q96 37 177 37 q47 0 83.5 -15.5t63.5 -58.5q-2 0 -123 -14q-76 -8 -112 -31q-61 -37 -121 -74q-92 -53 -125 -53t-57.5 19.5t-47.5 56.5zM1735 16q25 68 92 111q20 12 244 94q29 12 49 19q37 12 59 12h37q18 -6 27 -8l32 -51l-299 -95q-14 -4 -112 -49q-72 -33 -129 -33z" />
<glyph unicode="&#xc7;" horiz-adv-x="1415" d="M227 528q0 195 61.5 342.5t176.5 272.5q80 88 266 237q68 55 129 86q78 39 150 39q90 0 151.5 -52t61.5 -140q-47 0 -154 80q-53 39 -88 39q-168 0 -420 -323t-252 -513q0 -207 39 -326q63 -190 223 -190q106 0 257 44t301.5 89t228.5 45q57 0 96 -27q-37 -57 -321 -129 q-231 -57 -484 -90q35 -25 52.5 -45t17.5 -47q0 -94 -45 -141t-127 -47q-31 0 -49.5 8t-18.5 29q0 27 60.5 51t60.5 53q0 31 -27 72q-33 51 -34 57l-37 -2q-152 0 -223 201q-52 141 -52 327z" />
<glyph unicode="&#xc8;" horiz-adv-x="1318" d="M195 174q129 434 258 870q16 135 34 273q18 96 54.5 134t85.5 38q0 -92 20 -174l678 211q43 -14 86 -27q31 -18 31 -88q-18 -2 -40 -3t-34 -1q-20 0 -67.5 2t-71.5 2q-68 0 -361 -109.5t-301 -142.5q-37 -158 -92 -321q-160 -473 -172 -518.5t-40.5 -87.5t-67.5 -58z M444 16q49 68 131 111q16 8 277 96q55 18 75.5 23.5t43.5 5.5h30q6 0 31 -8l15 -51l-332 -95q-33 -10 -99 -37q-109 -45 -172 -45zM549 715q227 102 244 108q156 61 254 62q47 0 78.5 -15.5t43.5 -58.5q-106 -12 -160.5 -19.5t-90.5 -25.5q-63 -33 -105 -53 q-147 -74 -186 -74q-31 0 -49.5 21.5t-28.5 54.5zM627 1937q0 14 4 31.5t10 38.5q16 -4 37.5 -22.5t40.5 -33.5q96 -61 147 -125q68 -82 68 -176v-30q-53 20 -146 104q-74 68 -129 133q-32 37 -32 80z" />
<glyph unicode="&#xc9;" horiz-adv-x="1318" d="M195 174q129 434 258 870q16 135 34 273q18 96 54.5 134t85.5 38q0 -92 20 -174l678 211q43 -14 86 -27q31 -18 31 -88q-18 -2 -40 -3t-34 -1q-20 0 -67.5 2t-71.5 2q-68 0 -361 -109.5t-301 -142.5q-37 -158 -92 -321q-160 -473 -172 -518.5t-40.5 -87.5t-67.5 -58z M444 16q49 68 131 111q16 8 277 96q55 18 75.5 23.5t43.5 5.5h30q6 0 31 -8l15 -51l-332 -95q-33 -10 -99 -37q-109 -45 -172 -45zM549 715q227 102 244 108q156 61 254 62q47 0 78.5 -15.5t43.5 -58.5q-106 -12 -160.5 -19.5t-90.5 -25.5q-63 -33 -105 -53 q-147 -74 -186 -74q-31 0 -49.5 21.5t-28.5 54.5zM941 1626q8 25 20 50.5t31 57.5q39 66 86 113q63 61 125 61q16 0 34 -6l-34 -67q-49 -86 -107 -139q-75 -70 -155 -70z" />
<glyph unicode="&#xca;" horiz-adv-x="1318" d="M195 174q129 434 258 870q16 135 34 273q18 96 54.5 134t85.5 38q0 -92 20 -174l678 211q43 -14 86 -27q31 -18 31 -88q-18 -2 -40 -3t-34 -1q-20 0 -67.5 2t-71.5 2q-68 0 -361 -109.5t-301 -142.5q-37 -158 -92 -321q-160 -473 -172 -518.5t-40.5 -87.5t-67.5 -58z M444 16q49 68 131 111q16 8 277 96q55 18 75.5 23.5t43.5 5.5h30q6 0 31 -8l15 -51l-332 -95q-33 -10 -99 -37q-109 -45 -172 -45zM549 715q227 102 244 108q156 61 254 62q47 0 78.5 -15.5t43.5 -58.5q-106 -12 -160.5 -19.5t-90.5 -25.5q-63 -33 -105 -53 q-147 -74 -186 -74q-31 0 -49.5 21.5t-28.5 54.5zM711 1644q-2 18 6 32.5t27.5 35t77.5 67.5q137 111 164 138q16 16 34 28q29 18 47 19q59 0 136 -150q70 -137 69 -198l-6 -37q-29 8 -35 10q-18 6 -30.5 17.5t-17.5 28.5t-9 42q-12 57 -37.5 103t-71.5 104 q-84 -72 -167 -141q-121 -96 -185 -113z" />
<glyph unicode="&#xcb;" horiz-adv-x="1318" d="M195 174q129 434 258 870q16 135 34 273q18 96 54.5 134t85.5 38q0 -92 20 -174l678 211q43 -14 86 -27q31 -18 31 -88q-18 -2 -40 -3t-34 -1q-20 0 -67.5 2t-71.5 2q-68 0 -361 -109.5t-301 -142.5q-37 -158 -92 -321q-160 -473 -172 -518.5t-40.5 -87.5t-67.5 -58z M444 16q49 68 131 111q16 8 277 96q55 18 75.5 23.5t43.5 5.5h30q6 0 31 -8l15 -51l-332 -95q-33 -10 -99 -37q-109 -45 -172 -45zM549 715q227 102 244 108q156 61 254 62q47 0 78.5 -15.5t43.5 -58.5q-106 -12 -160.5 -19.5t-90.5 -25.5q-63 -33 -105 -53 q-147 -74 -186 -74q-31 0 -49.5 21.5t-28.5 54.5zM670 1712q0 47 34 88t79 41q53 0 95 -44t42 -95q0 -43 -27.5 -66.5t-72.5 -23.5q-61 0 -99 18q-51 27 -51 82zM1055 1704q0 47 34 88t79 41q53 0 95 -44t42 -96q0 -43 -27.5 -66.5t-72.5 -23.5q-61 0 -99 19q-51 27 -51 82z " />
<glyph unicode="&#xcc;" horiz-adv-x="1087" d="M205 115q0 35 37 48t92 13q23 0 55.5 -2t38.5 -2q43 0 60.5 25.5t17.5 70.5q0 274 45 506q53 268 168 479q12 -49 12 -100q0 -125 -53 -301q-117 -385 -117 -502q0 -109 24.5 -146.5t209.5 -90.5l12 4q18 0 23.5 -14.5t5.5 -41.5v-26q-12 -2 -25 -8q-43 -18 -47 -19 q-39 0 -100 8q-139 18 -175 19q-16 0 -36.5 -1t-44.5 -1q-113 0 -158 21.5t-45 60.5zM231 1432q72 16 195 22t246 6q84 0 162.5 -1t152.5 -1q98 0 154.5 -5t138.5 -21v-78q-70 0 -236.5 11t-220.5 11q-55 0 -235 -20q-90 -10 -144 -10q-74 0 -118 14q-66 21 -95 72z M476 1903q0 14 4 31.5t10 38.5q16 -4 37.5 -22.5t40.5 -33.5q96 -61 147 -125q68 -82 68 -176v-30q-53 20 -146 104q-74 68 -129 133q-32 37 -32 80z" />
<glyph unicode="&#xcd;" horiz-adv-x="1087" d="M205 115q0 35 37 48t92 13q23 0 55.5 -2t38.5 -2q43 0 60.5 25.5t17.5 70.5q0 274 45 506q53 268 168 479q12 -49 12 -100q0 -125 -53 -301q-117 -385 -117 -502q0 -109 24.5 -146.5t209.5 -90.5l12 4q18 0 23.5 -14.5t5.5 -41.5v-26q-12 -2 -25 -8q-43 -18 -47 -19 q-39 0 -100 8q-139 18 -175 19q-16 0 -36.5 -1t-44.5 -1q-113 0 -158 21.5t-45 60.5zM231 1432q72 16 195 22t246 6q84 0 162.5 -1t152.5 -1q98 0 154.5 -5t138.5 -21v-78q-70 0 -236.5 11t-220.5 11q-55 0 -235 -20q-90 -10 -144 -10q-74 0 -118 14q-66 21 -95 72z M773 1602q8 25 20 50.5t31 57.5q39 66 86 113q63 61 125 61q16 0 34 -6l-34 -67q-49 -86 -107 -139q-75 -70 -155 -70z" />
<glyph unicode="&#xce;" horiz-adv-x="1087" d="M205 115q0 35 37 48t92 13q23 0 55.5 -2t38.5 -2q43 0 60.5 25.5t17.5 70.5q0 274 45 506q53 268 168 479q12 -49 12 -100q0 -125 -53 -301q-117 -385 -117 -502q0 -109 24.5 -146.5t209.5 -90.5l12 4q18 0 23.5 -14.5t5.5 -41.5v-26q-12 -2 -25 -8q-43 -18 -47 -19 q-39 0 -100 8q-139 18 -175 19q-16 0 -36.5 -1t-44.5 -1q-113 0 -158 21.5t-45 60.5zM231 1432q72 16 195 22t246 6q84 0 162.5 -1t152.5 -1q98 0 154.5 -5t138.5 -21v-78q-70 0 -236.5 11t-220.5 11q-55 0 -235 -20q-90 -10 -144 -10q-74 0 -118 14q-66 21 -95 72z M469 1610q-2 18 6 32.5t27.5 35t77.5 67.5q137 111 164 138q16 16 34 28q29 18 47 19q59 0 136 -150q70 -137 69 -198l-6 -37q-29 8 -35 10q-18 6 -30.5 17.5t-17.5 28.5t-9 42q-12 57 -37.5 103t-71.5 104q-84 -72 -167 -141q-121 -96 -185 -113z" />
<glyph unicode="&#xcf;" horiz-adv-x="1087" d="M205 115q0 35 37 48t92 13q23 0 55.5 -2t38.5 -2q43 0 60.5 25.5t17.5 70.5q0 274 45 506q53 268 168 479q12 -49 12 -100q0 -125 -53 -301q-117 -385 -117 -502q0 -109 24.5 -146.5t209.5 -90.5l12 4q18 0 23.5 -14.5t5.5 -41.5v-26q-12 -2 -25 -8q-43 -18 -47 -19 q-39 0 -100 8q-139 18 -175 19q-16 0 -36.5 -1t-44.5 -1q-113 0 -158 21.5t-45 60.5zM231 1432q72 16 195 22t246 6q84 0 162.5 -1t152.5 -1q98 0 154.5 -5t138.5 -21v-78q-70 0 -236.5 11t-220.5 11q-55 0 -235 -20q-90 -10 -144 -10q-74 0 -118 14q-66 21 -95 72z M432 1690q0 47 34 88t79 41q53 0 95 -44t42 -95q0 -43 -27.5 -66.5t-72.5 -23.5q-61 0 -99 18q-51 27 -51 82zM817 1682q0 47 34 88t79 41q53 0 95 -44t42 -96q0 -43 -27.5 -66.5t-72.5 -23.5q-61 0 -99 19q-51 27 -51 82z" />
<glyph unicode="&#xd0;" horiz-adv-x="1357" d="M68 825q8 49 12 62q12 31 39 31q14 0 42.5 -6.5t43.5 -6.5q29 0 67 15q55 20 70 22q57 213 59 219q16 63 31 125q20 168 43 336l31 20q35 -8 78 -32q68 -39 75 -43q35 0 86 8q115 18 146 18q231 0 338 -118q100 -113 100 -349q0 -158 -122 -435t-271 -470 q-172 -221 -295 -221q-102 0 -145 80q-33 59 -33 172q20 -66 53 -105q41 -49 102 -49q133 0 291 228q137 197 237.5 465t100.5 403q0 168 -75.5 241.5t-245.5 73.5q-76 0 -209 -25.5t-160 -57t-61.5 -169t-65.5 -301.5l96 13q51 6 91 -26t53 -97q-37 0 -113 10t-113 10 l-30 -2q-33 -186 -58.5 -388t-25.5 -265q-16 0 -30.5 -2t-49.5 -14q-12 27 -17.5 57.5t-5.5 69.5q0 111 27 256q20 111 61 266q-61 -16 -95 -23.5t-70 -7.5q-41 0 -82 12z" />
<glyph unicode="&#xd1;" horiz-adv-x="1435" d="M182 248q0 86 88 348q63 188 183 496q74 188 147 378q16 41 25 56q20 33 51 33q117 0 205 -281q31 -96 123 -551q66 -324 122 -379q59 262 84 363q74 297 142 489q90 254 159 287l5 -49q2 -20 2 -31q0 -117 -87.5 -340t-170.5 -434q-90 -256 -91 -426q0 -68 13 -129 q-12 -4 -29.5 -12.5t-46.5 -26.5q-55 102 -121 457q-84 451 -117 575q-80 295 -190 340q-37 -125 -119 -307q-43 -92 -84 -182q-49 -113 -88 -281q-94 -406 -111 -451q-37 -27 -81 -36q-13 47 -13 94zM784 1728q0 20 112.5 58.5t145.5 38.5q55 0 91 -40t73 -40t145 18 q59 10 93 11q29 0 46 -5.5t25 -23.5q-55 -12 -181 -30.5t-173 -18.5q-57 0 -71.5 39t-59.5 39q-31 0 -137 -52q-51 -25 -70 -24q-10 0 -18 4q-21 12 -21 26z" />
<glyph unicode="&#xd2;" horiz-adv-x="1415" d="M195 387q0 223 68.5 393t221.5 342q59 76 121 152q74 80 170 80q299 0 416 -39q223 -76 223 -311q0 -311 -258 -648q-276 -358 -577 -358q-176 0 -280.5 106.5t-104.5 282.5zM274 414q0 -184 84 -254q74 -61 263 -62q254 0 505 365q236 340 236 608q0 115 -115 170 q-86 41 -217 41q-287 0 -526 -293q-230 -280 -230 -575zM621 1813q0 14 4 31.5t10 38.5q16 -4 37.5 -22.5t40.5 -33.5q96 -61 147 -125q68 -82 68 -176v-30q-53 20 -146 104q-74 68 -129 133q-32 37 -32 80z" />
<glyph unicode="&#xd3;" horiz-adv-x="1415" d="M195 387q0 223 68.5 393t221.5 342q59 76 121 152q74 80 170 80q299 0 416 -39q223 -76 223 -311q0 -311 -258 -648q-276 -358 -577 -358q-176 0 -280.5 106.5t-104.5 282.5zM274 414q0 -184 84 -254q74 -61 263 -62q254 0 505 365q236 340 236 608q0 115 -115 170 q-86 41 -217 41q-287 0 -526 -293q-230 -280 -230 -575zM986 1499q8 25 20 50.5t31 57.5q39 66 86 113q63 61 125 61q16 0 34 -6l-34 -67q-49 -86 -107 -139q-75 -70 -155 -70z" />
<glyph unicode="&#xd4;" horiz-adv-x="1415" d="M195 387q0 223 68.5 393t221.5 342q59 76 121 152q74 80 170 80q299 0 416 -39q223 -76 223 -311q0 -311 -258 -648q-276 -358 -577 -358q-176 0 -280.5 106.5t-104.5 282.5zM274 414q0 -184 84 -254q74 -61 263 -62q254 0 505 365q236 340 236 608q0 115 -115 170 q-86 41 -217 41q-287 0 -526 -293q-230 -280 -230 -575zM754 1519q-2 18 6 32.5t27.5 35t77.5 67.5q137 111 164 138q16 16 34 28q29 18 47 19q59 0 136 -150q70 -137 69 -198l-6 -37q-29 8 -35 10q-18 6 -30.5 17.5t-17.5 28.5t-9 42q-12 57 -37.5 103t-71.5 104 q-84 -72 -167 -141q-121 -96 -185 -113z" />
<glyph unicode="&#xd5;" horiz-adv-x="1415" d="M195 387q0 223 68.5 393t221.5 342q59 76 121 152q74 80 170 80q299 0 416 -39q223 -76 223 -311q0 -311 -258 -648q-276 -358 -577 -358q-176 0 -280.5 106.5t-104.5 282.5zM274 414q0 -184 84 -254q74 -61 263 -62q254 0 505 365q236 340 236 608q0 115 -115 170 q-86 41 -217 41q-287 0 -526 -293q-230 -280 -230 -575zM715 1583q0 20 112.5 58.5t145.5 38.5q55 0 91 -40t73 -40t145 18q59 10 93 11q29 0 46 -5.5t25 -23.5q-55 -12 -181 -30.5t-173 -18.5q-57 0 -71.5 39t-59.5 39q-31 0 -137 -52q-51 -25 -70 -24q-10 0 -18 4 q-21 12 -21 26z" />
<glyph unicode="&#xd6;" horiz-adv-x="1415" d="M195 387q0 223 68.5 393t221.5 342q59 76 121 152q74 80 170 80q299 0 416 -39q223 -76 223 -311q0 -311 -258 -648q-276 -358 -577 -358q-176 0 -280.5 106.5t-104.5 282.5zM274 414q0 -184 84 -254q74 -61 263 -62q254 0 505 365q236 340 236 608q0 115 -115 170 q-86 41 -217 41q-287 0 -526 -293q-230 -280 -230 -575zM698 1606q0 47 34 88t79 41q53 0 95 -44t42 -95q0 -43 -27.5 -66.5t-72.5 -23.5q-61 0 -99 18q-51 27 -51 82zM1083 1598q0 47 34 88t79 41q53 0 95 -44t42 -96q0 -43 -27.5 -66.5t-72.5 -23.5q-61 0 -99 19 q-51 27 -51 82z" />
<glyph unicode="&#xd7;" horiz-adv-x="950" d="M12 1098q0 8 4 28q72 -45 136 -90q215 -152 221 -155q16 -10 38.5 -16.5t39.5 -6.5q49 0 112 37q147 86 178 86q8 0 29 -4q-18 -41 -58 -77t-76 -69.5t-36 -68.5q0 -31 29 -60q20 -23 108 -84q43 -31 66 -53q57 -57 57 -96q0 -37 -47 -84q-61 86 -86 117q-39 49 -96 106 q-45 45 -84 64.5t-72 19.5q-43 0 -149 -71q-51 -35 -90 -35q-16 0 -39 6q18 61 61 109.5t88 95.5q-35 37 -102 77q-150 92 -178.5 121t-41 50.5t-12.5 52.5z" />
<glyph unicode="&#xd8;" horiz-adv-x="1415" d="M195 387q0 223 68.5 393t221.5 342q59 76 121 152q74 80 170 80q78 0 159 -1t161 -16l18 33q39 70 60 98q37 51 73 76q6 -25 9.5 -47t3.5 -45t-8.5 -59.5t-32.5 -89.5q94 -37 141 -103q55 -76 55 -196q0 -311 -258 -648q-276 -358 -577 -358h-25l-16 -35 q-18 -39 -48 -59.5t-63 -26.5v33q0 6 8 39l17 65q-119 37 -188.5 136.5t-69.5 236.5zM274 414q0 -147 48.5 -217t158.5 -88q33 90 70 170q20 43 81.5 161.5t125.5 231.5q131 231 133 237q41 76 90 185l86 186l-37 2q-287 0 -526 -293q-230 -280 -230 -575zM594 98h27 q254 0 505 365q236 340 236 608q0 74 -46 120t-118 69l-65 -117q-45 -84 -158 -289q-80 -145 -158 -289q-55 -104 -151 -297q-18 -37 -36 -76t-36 -94z" />
<glyph unicode="&#xd9;" horiz-adv-x="1144" d="M195 274q0 156 65 359q57 180 156 375q82 164 184 325q10 -12 20.5 -34.5t10.5 -41.5q0 -35 -86 -215q-111 -229 -160 -360q-88 -231 -88 -375q0 -90 29 -135q37 -57 120 -57q147 0 312 155q137 129 262 340q104 176 164 334q0 2 30 143q18 86 66 130q20 -6 34.5 -28 t22.5 -48q-14 -68 -102 -254q-70 -145 -129 -256q-94 -178 -152 -266q-104 -162 -206 -242q-131 -104 -283 -105q-162 0 -213 45q-57 51 -57 211zM744 1796q0 14 4 31.5t10 38.5q16 -4 37.5 -22.5t40.5 -33.5q96 -61 147 -125q68 -82 68 -176v-30q-53 20 -146 104 q-74 68 -129 133q-32 37 -32 80z" />
<glyph unicode="&#xda;" horiz-adv-x="1144" d="M195 274q0 156 65 359q57 180 156 375q82 164 184 325q10 -12 20.5 -34.5t10.5 -41.5q0 -35 -86 -215q-111 -229 -160 -360q-88 -231 -88 -375q0 -90 29 -135q37 -57 120 -57q147 0 312 155q137 129 262 340q104 176 164 334q0 2 30 143q18 86 66 130q20 -6 34.5 -28 t22.5 -48q-14 -68 -102 -254q-70 -145 -129 -256q-94 -178 -152 -266q-104 -162 -206 -242q-131 -104 -283 -105q-162 0 -213 45q-57 51 -57 211zM988 1452q8 25 20 50.5t31 57.5q39 66 86 113q63 61 125 61q16 0 34 -6l-34 -67q-49 -86 -107 -139q-75 -70 -155 -70z" />
<glyph unicode="&#xdb;" horiz-adv-x="1144" d="M195 274q0 156 65 359q57 180 156 375q82 164 184 325q10 -12 20.5 -34.5t10.5 -41.5q0 -35 -86 -215q-111 -229 -160 -360q-88 -231 -88 -375q0 -90 29 -135q37 -57 120 -57q147 0 312 155q137 129 262 340q104 176 164 334q0 2 30 143q18 86 66 130q20 -6 34.5 -28 t22.5 -48q-14 -68 -102 -254q-70 -145 -129 -256q-94 -178 -152 -266q-104 -162 -206 -242q-131 -104 -283 -105q-162 0 -213 45q-57 51 -57 211zM739 1431q-2 18 6 32.5t27.5 35t77.5 67.5q137 111 164 138q16 16 34 28q29 18 47 19q59 0 136 -150q70 -137 69 -198l-6 -37 q-29 8 -35 10q-18 6 -30.5 17.5t-17.5 28.5t-9 42q-12 57 -37.5 103t-71.5 104q-84 -72 -167 -141q-121 -96 -185 -113z" />
<glyph unicode="&#xdc;" horiz-adv-x="1144" d="M195 274q0 156 65 359q57 180 156 375q82 164 184 325q10 -12 20.5 -34.5t10.5 -41.5q0 -35 -86 -215q-111 -229 -160 -360q-88 -231 -88 -375q0 -90 29 -135q37 -57 120 -57q147 0 312 155q137 129 262 340q104 176 164 334q0 2 30 143q18 86 66 130q20 -6 34.5 -28 t22.5 -48q-14 -68 -102 -254q-70 -145 -129 -256q-94 -178 -152 -266q-104 -162 -206 -242q-131 -104 -283 -105q-162 0 -213 45q-57 51 -57 211zM713 1518q0 47 34 88t79 41q53 0 95 -44t42 -95q0 -43 -27.5 -66.5t-72.5 -23.5q-61 0 -99 18q-51 27 -51 82zM1098 1510 q0 47 34 88t79 41q53 0 95 -44t42 -96q0 -43 -27.5 -66.5t-72.5 -23.5q-61 0 -99 19q-51 27 -51 82z" />
<glyph unicode="&#xdd;" horiz-adv-x="890" d="M213 1589q0 16 5 34.5t15 39.5q49 -25 89 -86q29 -45 52 -112.5t51 -137.5t64 -129q23 -37 29 -51q14 -31 14 -57q0 -31 -17 -50.5t-50 -35.5q-18 63 -66 167q-59 133 -71 164q-49 86 -97 172q-10 29 -14 45.5t-4 36.5zM231 57q74 94 129 217q78 195 160 385.5t166 374.5 q74 160 145 273q88 137 254 340l60 -43q-25 -68 -96.5 -155t-139.5 -169q-84 -102 -119.5 -174t-150.5 -356q-143 -358 -193 -469q-106 -242 -155 -281zM734 1798q8 25 20 50.5t31 57.5q39 66 86 113q63 61 125 61q16 0 34 -6l-34 -67q-49 -86 -107 -139q-75 -70 -155 -70z " />
<glyph unicode="&#xde;" horiz-adv-x="1067" d="M225 90q0 72 82 279q66 166 133 301q25 49 39 108q41 176 43 178q68 51 135.5 239.5t57.5 274.5q43 -8 73 -26q41 -27 41 -62q0 -47 -65 -225q-23 -63 -84 -215q168 86 240 117q156 66 254 65q76 0 127 -42t51 -117q0 -68 -154 -232q-141 -150 -309 -279.5t-221 -129.5 q-31 0 -53.5 21.5t-39.5 55.5q176 61 390 222q242 182 284 327l-26 41q-20 6 -40 9.5t-38 3.5q-342 0 -520 -248q-82 -113 -199 -467q-86 -258 -195 -271q-2 10 -4 32t-2 40z" />
<glyph unicode="&#xdf;" horiz-adv-x="1435" d="M147 -170q0 76 33 184q27 90 56 183q37 260 73 522q53 350 164 520q156 238 465 238q154 0 289 -45q188 -61 188 -183q0 -119 -162 -284q-86 -88 -262 -230q74 -33 114 -89t40 -136q0 -178 -132 -330.5t-306 -152.5q-111 0 -183 55q-80 61 -80 170q25 -10 134 -88 q82 -59 145 -60q113 0 228.5 146.5t115.5 263.5q0 74 -80 111q-57 27 -207 51q-215 35 -270 47q307 0 565 176q246 168 246 338q0 86 -160 129q-113 31 -231 31q-248 0 -387 -258q-96 -180 -162 -555q-80 -465 -93.5 -508t-22.5 -150.5t-27 -144.5q-35 -20 -80 -31 q-11 45 -11 80z" />
<glyph unicode="&#xe0;" d="M76 190q0 141 152.5 320.5t291.5 179.5q88 0 127 -65q16 -27 49 -142q4 -16 33 -53t29 -61q0 -41 -63.5 -119t-63.5 -117q0 -57 47 -96t108 -39q57 0 134 26.5t147 53.5q-23 -74 -121 -121q-86 -41 -174 -41q-133 0 -200.5 88t-116.5 88q-35 0 -146 -37q-61 -20 -94 -20 q-74 0 -106.5 39.5t-32.5 115.5zM156 188q0 -84 77 -84q121 0 256.5 121t135.5 240q0 53 -27 99t-78 46q-109 0 -236.5 -152.5t-127.5 -269.5zM273 1104q0 14 4 31.5t10 38.5q16 -4 37.5 -22.5t40.5 -33.5q96 -61 147 -125q68 -82 68 -176v-30q-53 20 -146 104 q-74 68 -129 133q-32 37 -32 80z" />
<glyph unicode="&#xe1;" d="M76 190q0 141 152.5 320.5t291.5 179.5q88 0 127 -65q16 -27 49 -142q4 -16 33 -53t29 -61q0 -41 -63.5 -119t-63.5 -117q0 -57 47 -96t108 -39q57 0 134 26.5t147 53.5q-23 -74 -121 -121q-86 -41 -174 -41q-133 0 -200.5 88t-116.5 88q-35 0 -146 -37q-61 -20 -94 -20 q-74 0 -106.5 39.5t-32.5 115.5zM156 188q0 -84 77 -84q121 0 256.5 121t135.5 240q0 53 -27 99t-78 46q-109 0 -236.5 -152.5t-127.5 -269.5zM547 821q8 25 20 50.5t31 57.5q39 66 86 113q63 61 125 61q16 0 34 -6l-34 -67q-49 -86 -107 -139q-75 -70 -155 -70z" />
<glyph unicode="&#xe2;" d="M76 190q0 141 152.5 320.5t291.5 179.5q88 0 127 -65q16 -27 49 -142q4 -16 33 -53t29 -61q0 -41 -63.5 -119t-63.5 -117q0 -57 47 -96t108 -39q57 0 134 26.5t147 53.5q-23 -74 -121 -121q-86 -41 -174 -41q-133 0 -200.5 88t-116.5 88q-35 0 -146 -37q-61 -20 -94 -20 q-74 0 -106.5 39.5t-32.5 115.5zM156 188q0 -84 77 -84q121 0 256.5 121t135.5 240q0 53 -27 99t-78 46q-109 0 -236.5 -152.5t-127.5 -269.5zM274 788q-2 18 6 32.5t27.5 35t77.5 67.5q137 111 164 138q16 16 34 28q29 18 47 19q59 0 136 -150q70 -137 69 -198l-6 -37 q-29 8 -35 10q-18 6 -30.5 17.5t-17.5 28.5t-9 42q-12 57 -37.5 103t-71.5 104q-84 -72 -167 -141q-121 -96 -185 -113z" />
<glyph unicode="&#xe3;" d="M76 190q0 141 152.5 320.5t291.5 179.5q88 0 127 -65q16 -27 49 -142q4 -16 33 -53t29 -61q0 -41 -63.5 -119t-63.5 -117q0 -57 47 -96t108 -39q57 0 134 26.5t147 53.5q-23 -74 -121 -121q-86 -41 -174 -41q-133 0 -200.5 88t-116.5 88q-35 0 -146 -37q-61 -20 -94 -20 q-74 0 -106.5 39.5t-32.5 115.5zM156 188q0 -84 77 -84q121 0 256.5 121t135.5 240q0 53 -27 99t-78 46q-109 0 -236.5 -152.5t-127.5 -269.5zM186 819q0 20 112.5 58.5t145.5 38.5q55 0 91 -40t73 -40t145 18q59 10 93 11q29 0 46 -5.5t25 -23.5q-55 -12 -181 -30.5 t-173 -18.5q-57 0 -71.5 39t-59.5 39q-31 0 -137 -52q-51 -25 -70 -24q-10 0 -18 4q-21 12 -21 26z" />
<glyph unicode="&#xe4;" d="M76 190q0 141 152.5 320.5t291.5 179.5q88 0 127 -65q16 -27 49 -142q4 -16 33 -53t29 -61q0 -41 -63.5 -119t-63.5 -117q0 -57 47 -96t108 -39q57 0 134 26.5t147 53.5q-23 -74 -121 -121q-86 -41 -174 -41q-133 0 -200.5 88t-116.5 88q-35 0 -146 -37q-61 -20 -94 -20 q-74 0 -106.5 39.5t-32.5 115.5zM156 188q0 -84 77 -84q121 0 256.5 121t135.5 240q0 53 -27 99t-78 46q-109 0 -236.5 -152.5t-127.5 -269.5zM225 881q0 47 34 88t79 41q53 0 95 -44t42 -95q0 -43 -27.5 -66.5t-72.5 -23.5q-61 0 -99 18q-51 27 -51 82zM610 873q0 47 34 88 t79 41q53 0 95 -44t42 -96q0 -43 -27.5 -66.5t-72.5 -23.5q-61 0 -99 19q-51 27 -51 82z" />
<glyph unicode="&#xe5;" d="M76 190q0 141 152.5 320.5t291.5 179.5q88 0 127 -65q16 -27 49 -142q4 -16 33 -53t29 -61q0 -41 -63.5 -119t-63.5 -117q0 -57 47 -96t108 -39q57 0 134 26.5t147 53.5q-23 -74 -121 -121q-86 -41 -174 -41q-133 0 -200.5 88t-116.5 88q-35 0 -146 -37q-61 -20 -94 -20 q-74 0 -106.5 39.5t-32.5 115.5zM156 188q0 -84 77 -84q121 0 256.5 121t135.5 240q0 53 -27 99t-78 46q-109 0 -236.5 -152.5t-127.5 -269.5zM375 901q0 94 92 192.5t188 98.5q51 0 82 -26.5t23 -73.5q82 -33 125 -64t43 -55q0 -39 -188.5 -104.5t-249.5 -65.5 q-53 0 -84 22.5t-31 75.5zM412 911q0 -82 78 -82q55 0 219 57.5t164 96.5q0 41 -98.5 64.5t-248.5 23.5q-33 0 -39 -4q-18 -8 -46.5 -70.5t-28.5 -85.5zM543 1110q57 -20 108 -21q37 0 82 11q-27 27 -45 39q-27 18 -55 18q-25 0 -46 -12t-44 -35z" />
<glyph unicode="&#xe6;" horiz-adv-x="1634" d="M70 219q0 158 154.5 356.5t295.5 198.5q80 0 121 -59q25 -37 47 -133q66 119 187.5 193.5t259.5 74.5q98 0 168 -41q88 -51 88 -141q0 -125 -127 -195q-106 -57 -242 -57q-57 0 -166 18q-35 6 -98 19q-16 -27 -25 -43q-25 -53 -24 -109q0 -88 53 -153.5t137 -65.5 q109 0 344.5 82t323.5 82q33 0 55.5 -18.5t34.5 -53.5q-135 0 -301 -45q-139 -45 -282.5 -90t-219.5 -45q-74 0 -164 108q-43 51 -96 52q-39 0 -188.5 -53.5t-194.5 -53.5q-74 0 -107.5 45t-33.5 127zM150 217q0 -92 79 -92q121 0 258.5 135t137.5 264q0 57 -27 108.5 t-78 51.5q-111 0 -240.5 -169t-129.5 -298zM766 561q88 -33 144.5 -46t127.5 -13q74 0 166 51q104 57 105 123q0 47 -34 65.5t-85 18.5q-123 0 -230.5 -52.5t-193.5 -146.5z" />
<glyph unicode="&#xe7;" horiz-adv-x="1103" d="M88 131q0 29 43 88q31 43 64 86q117 197 278 363q215 219 375 219q127 0 127 -117l-6 -37q-68 61 -148 62q-135 0 -369.5 -260.5t-256.5 -401.5q76 -20 173 -29.5t197 -9.5h103q57 0 135 6q182 14 225 15q8 0 22.5 -4.5t20.5 -10.5q-8 -27 -4 -43q-86 -25 -184.5 -40 t-182.5 -15q14 -14 23.5 -29.5t9.5 -33.5q0 -94 -45 -141.5t-127 -47.5q-31 0 -49 8.5t-18 28.5q0 27 60 51.5t60 52.5q0 27 -17 55.5t-34 53.5q-147 0 -284 27q-191 36 -191 104z" />
<glyph unicode="&#xe8;" d="M78 360q0 197 150.5 343.5t353.5 146.5q98 0 168 -41q88 -51 88 -141q0 -125 -127 -195q-106 -57 -242 -57q-82 0 -155.5 12t-157.5 37q-2 -10 -5.5 -28.5t-5.5 -39.5q0 -117 43 -202q55 -113 158 -113q109 0 344.5 82t323.5 82q33 0 55.5 -18.5t34.5 -53.5 q-111 0 -249 -43t-279.5 -87t-247.5 -44q-127 0 -195 123q-55 100 -55 237zM213 561q88 -33 144.5 -46t127.5 -13q74 0 166 51q104 57 105 123q0 47 -34 65.5t-85 18.5q-123 0 -230.5 -52.5t-193.5 -146.5zM269 1292q0 14 4 31.5t10 38.5q16 -4 37.5 -22.5t40.5 -33.5 q96 -61 147 -125q68 -82 68 -176v-30q-53 20 -146 104q-74 68 -129 133q-32 37 -32 80z" />
<glyph unicode="&#xe9;" d="M78 360q0 197 150.5 343.5t353.5 146.5q98 0 168 -41q88 -51 88 -141q0 -125 -127 -195q-106 -57 -242 -57q-82 0 -155.5 12t-157.5 37q-2 -10 -5.5 -28.5t-5.5 -39.5q0 -117 43 -202q55 -113 158 -113q109 0 344.5 82t323.5 82q33 0 55.5 -18.5t34.5 -53.5 q-111 0 -249 -43t-279.5 -87t-247.5 -44q-127 0 -195 123q-55 100 -55 237zM213 561q88 -33 144.5 -46t127.5 -13q74 0 166 51q104 57 105 123q0 47 -34 65.5t-85 18.5q-123 0 -230.5 -52.5t-193.5 -146.5zM566 940q8 25 20 50.5t31 57.5q39 66 86 113q63 61 125 61 q16 0 34 -6l-34 -67q-49 -86 -107 -139q-75 -70 -155 -70z" />
<glyph unicode="&#xea;" d="M78 360q0 197 150.5 343.5t353.5 146.5q98 0 168 -41q88 -51 88 -141q0 -125 -127 -195q-106 -57 -242 -57q-82 0 -155.5 12t-157.5 37q-2 -10 -5.5 -28.5t-5.5 -39.5q0 -117 43 -202q55 -113 158 -113q109 0 344.5 82t323.5 82q33 0 55.5 -18.5t34.5 -53.5 q-111 0 -249 -43t-279.5 -87t-247.5 -44q-127 0 -195 123q-55 100 -55 237zM213 561q88 -33 144.5 -46t127.5 -13q74 0 166 51q104 57 105 123q0 47 -34 65.5t-85 18.5q-123 0 -230.5 -52.5t-193.5 -146.5zM270 962q-2 18 6 32.5t27.5 35t77.5 67.5q137 111 164 138 q16 16 34 28q29 18 47 19q59 0 136 -150q70 -137 69 -198l-6 -37q-29 8 -35 10q-18 6 -30.5 17.5t-17.5 28.5t-9 42q-12 57 -37.5 103t-71.5 104q-84 -72 -167 -141q-121 -96 -185 -113z" />
<glyph unicode="&#xeb;" d="M78 360q0 197 150.5 343.5t353.5 146.5q98 0 168 -41q88 -51 88 -141q0 -125 -127 -195q-106 -57 -242 -57q-82 0 -155.5 12t-157.5 37q-2 -10 -5.5 -28.5t-5.5 -39.5q0 -117 43 -202q55 -113 158 -113q109 0 344.5 82t323.5 82q33 0 55.5 -18.5t34.5 -53.5 q-111 0 -249 -43t-279.5 -87t-247.5 -44q-127 0 -195 123q-55 100 -55 237zM213 561q88 -33 144.5 -46t127.5 -13q74 0 166 51q104 57 105 123q0 47 -34 65.5t-85 18.5q-123 0 -230.5 -52.5t-193.5 -146.5zM223 1018q0 47 34 88t79 41q53 0 95 -44t42 -95q0 -43 -27.5 -66.5 t-72.5 -23.5q-61 0 -99 18q-51 27 -51 82zM608 1010q0 47 34 88t79 41q53 0 95 -44t42 -96q0 -43 -27.5 -66.5t-72.5 -23.5q-61 0 -99 19q-51 27 -51 82z" />
<glyph unicode="&#xec;" horiz-adv-x="485" d="M92 51q0 127 80 338q88 231 176 287q14 -43 14 -74q0 -59 -45 -149q-57 -113 -65 -146l-43 -176q-14 -47 -42 -81t-71 -48q-6 26 -4 49zM93 1071q0 14 4 31.5t10 38.5q16 -4 37.5 -22.5t40.5 -33.5q96 -61 147 -125q68 -82 68 -176v-30q-53 20 -146 104q-74 68 -129 133 q-32 37 -32 80z" />
<glyph unicode="&#xed;" horiz-adv-x="485" d="M92 51q0 127 80 338q88 231 176 287q14 -43 14 -74q0 -59 -45 -149q-57 -113 -65 -146l-43 -176q-14 -47 -42 -81t-71 -48q-6 26 -4 49zM330 778q8 25 20 50.5t31 57.5q39 66 86 113q63 61 125 61q16 0 34 -6l-34 -67q-49 -86 -107 -139q-75 -70 -155 -70z" />
<glyph unicode="&#xee;" horiz-adv-x="485" d="M92 51q0 127 80 338q88 231 176 287q14 -43 14 -74q0 -59 -45 -149q-57 -113 -65 -146l-43 -176q-14 -47 -42 -81t-71 -48q-6 26 -4 49zM92 737q-2 18 6 32.5t27.5 35t77.5 67.5q137 111 164 138q16 16 34 28q29 18 47 19q59 0 136 -150q70 -137 69 -198l-6 -37 q-29 8 -35 10q-18 6 -30.5 17.5t-17.5 28.5t-9 42q-12 57 -37.5 103t-71.5 104q-84 -72 -167 -141q-121 -96 -185 -113z" />
<glyph unicode="&#xef;" horiz-adv-x="485" d="M92 51q0 127 80 338q88 231 176 287q14 -43 14 -74q0 -59 -45 -149q-57 -113 -65 -146l-43 -176q-14 -47 -42 -81t-71 -48q-6 26 -4 49zM92 823q0 47 34 88t79 41q53 0 95 -44t42 -95q0 -43 -27.5 -66.5t-72.5 -23.5q-61 0 -99 18q-51 27 -51 82zM477 815q0 47 34 88 t79 41q53 0 95 -44t42 -96q0 -43 -27.5 -66.5t-72.5 -23.5q-61 0 -99 19q-51 27 -51 82z" />
<glyph unicode="&#xf0;" horiz-adv-x="1028" d="M96 254q0 84 107 121q74 25 180 24q88 0 168 -20q55 -14 160 -57q10 31 10 38q0 147 -32 307t-89 343l-96 -48q-51 -26 -77 -33t-46.5 -9t-46.5 -2q-4 25 -4 36q0 47 23.5 53.5t54 8.5t53 8t52.5 25.5t60 40.5l-16 43q-8 23 -57 124q-39 80 -39 129l18 44q31 12 66 12 q43 0 65 -103q18 -119 23 -145l14 -74l119 47q8 4 23.5 7.5t31.5 3.5q78 0 119 -80q-117 -23 -233 -43l-43 -15q61 -274 145 -602l115 -307q0 -37 -17 -80q-88 121 -207 193q-129 78 -358 78q-59 0 -96 -17q-53 -25 -53 -78q0 -92 114 -172q106 -74 207 -73q76 0 111 57 q29 47 28 129q14 -4 33 -15.5t35 -23.5q8 -27 18 -53q0 -70 -70.5 -126t-142.5 -56q-123 0 -272 116q-158 123 -158 244z" />
<glyph unicode="&#xf1;" horiz-adv-x="970" d="M86 100q0 66 68.5 290t105.5 267l47 -2q-20 -92 -39 -184l2 -29q70 16 166 90l164 127q98 66 178 66t128 -61.5t48 -145.5q0 -70 -42 -214t-42 -216q-6 -74 -8 -84q-8 -53 -28 -80q-78 51 -78 142q0 55 69 251q33 92 33 156q0 59 -22 105q-29 57 -82 57q-68 0 -238 -127 q-68 -49 -225 -182q-45 -37 -121 -211q-33 -74 -72 -97q-4 18 -8 41t-4 41zM340 901q0 20 112.5 58.5t145.5 38.5q55 0 91 -40t73 -40t145 18q59 10 93 11q29 0 46 -5.5t25 -23.5q-55 -12 -181 -30.5t-173 -18.5q-57 0 -71.5 39t-59.5 39q-31 0 -137 -52q-51 -25 -70 -24 q-10 0 -18 4q-21 12 -21 26z" />
<glyph unicode="&#xf2;" horiz-adv-x="1280" d="M78 227q0 207 201.5 417t408.5 210q94 0 160.5 -47t66.5 -129q0 -14 -4 -39q113 -41 215 -100q150 -86 150 -156q0 -61 -211 -154q-172 -76 -413.5 -143.5t-321.5 -67.5q-117 0 -178 45q-74 53 -74 164zM158 252q0 -82 43 -129t125 -47q127 0 460 117q369 129 369 215 q0 88 -212 139t-537 51q-27 0 -48.5 -1t-35.5 -9q-39 -18 -101.5 -151.5t-62.5 -184.5zM444 678q117 -41 234 -41q94 0 176 20q-70 72 -120 97.5t-97 25.5q-53 0 -107 -30q-39 -23 -86 -72zM332 1274q0 14 4 31.5t10 38.5q16 -4 37.5 -22.5t40.5 -33.5q96 -61 147 -125 q68 -82 68 -176v-30q-53 20 -146 104q-74 68 -129 133q-32 37 -32 80z" />
<glyph unicode="&#xf3;" horiz-adv-x="1280" d="M78 227q0 207 201.5 417t408.5 210q94 0 160.5 -47t66.5 -129q0 -14 -4 -39q113 -41 215 -100q150 -86 150 -156q0 -61 -211 -154q-172 -76 -413.5 -143.5t-321.5 -67.5q-117 0 -178 45q-74 53 -74 164zM158 252q0 -82 43 -129t125 -47q127 0 460 117q369 129 369 215 q0 88 -212 139t-537 51q-27 0 -48.5 -1t-35.5 -9q-39 -18 -101.5 -151.5t-62.5 -184.5zM444 678q117 -41 234 -41q94 0 176 20q-70 72 -120 97.5t-97 25.5q-53 0 -107 -30q-39 -23 -86 -72zM715 973q8 25 20 50.5t31 57.5q39 66 86 113q63 61 125 61q16 0 34 -6l-34 -67 q-49 -86 -107 -139q-75 -70 -155 -70z" />
<glyph unicode="&#xf4;" horiz-adv-x="1280" d="M78 227q0 207 201.5 417t408.5 210q94 0 160.5 -47t66.5 -129q0 -14 -4 -39q113 -41 215 -100q150 -86 150 -156q0 -61 -211 -154q-172 -76 -413.5 -143.5t-321.5 -67.5q-117 0 -178 45q-74 53 -74 164zM158 252q0 -82 43 -129t125 -47q127 0 460 117q369 129 369 215 q0 88 -212 139t-537 51q-27 0 -48.5 -1t-35.5 -9q-39 -18 -101.5 -151.5t-62.5 -184.5zM444 678q117 -41 234 -41q94 0 176 20q-70 72 -120 97.5t-97 25.5q-53 0 -107 -30q-39 -23 -86 -72zM391 944q-2 18 6 32.5t27.5 35t77.5 67.5q137 111 164 138q16 16 34 28 q29 18 47 19q59 0 136 -150q70 -137 69 -198l-6 -37q-29 8 -35 10q-18 6 -30.5 17.5t-17.5 28.5t-9 42q-12 57 -37.5 103t-71.5 104q-84 -72 -167 -141q-121 -96 -185 -113z" />
<glyph unicode="&#xf5;" horiz-adv-x="1280" d="M78 227q0 207 201.5 417t408.5 210q94 0 160.5 -47t66.5 -129q0 -14 -4 -39q113 -41 215 -100q150 -86 150 -156q0 -61 -211 -154q-172 -76 -413.5 -143.5t-321.5 -67.5q-117 0 -178 45q-74 53 -74 164zM158 252q0 -82 43 -129t125 -47q127 0 460 117q369 129 369 215 q0 88 -212 139t-537 51q-27 0 -48.5 -1t-35.5 -9q-39 -18 -101.5 -151.5t-62.5 -184.5zM444 678q117 -41 234 -41q94 0 176 20q-70 72 -120 97.5t-97 25.5q-53 0 -107 -30q-39 -23 -86 -72zM299 978q0 20 112.5 58.5t145.5 38.5q55 0 91 -40t73 -40t145 18q59 10 93 11 q29 0 46 -5.5t25 -23.5q-55 -12 -181 -30.5t-173 -18.5q-57 0 -71.5 39t-59.5 39q-31 0 -137 -52q-51 -25 -70 -24q-10 0 -18 4q-21 12 -21 26z" />
<glyph unicode="&#xf6;" horiz-adv-x="1280" d="M78 227q0 207 201.5 417t408.5 210q94 0 160.5 -47t66.5 -129q0 -14 -4 -39q113 -41 215 -100q150 -86 150 -156q0 -61 -211 -154q-172 -76 -413.5 -143.5t-321.5 -67.5q-117 0 -178 45q-74 53 -74 164zM158 252q0 -82 43 -129t125 -47q127 0 460 117q369 129 369 215 q0 88 -212 139t-537 51q-27 0 -48.5 -1t-35.5 -9q-39 -18 -101.5 -151.5t-62.5 -184.5zM444 678q117 -41 234 -41q94 0 176 20q-70 72 -120 97.5t-97 25.5q-53 0 -107 -30q-39 -23 -86 -72zM336 1026q0 47 34 88t79 41q53 0 95 -44t42 -95q0 -43 -27.5 -66.5t-72.5 -23.5 q-61 0 -99 18q-51 27 -51 82zM721 1018q0 47 34 88t79 41q53 0 95 -44t42 -96q0 -43 -27.5 -66.5t-72.5 -23.5q-61 0 -99 19q-51 27 -51 82z" />
<glyph unicode="&#xf7;" horiz-adv-x="950" d="M121 653q6 37 19.5 62.5t45.5 25.5q18 0 55.5 -6t55.5 -6q33 0 72 10q113 31 123 31l221 21q16 2 22 2q59 0 104.5 -32t59.5 -89q-45 0 -108 6q-147 14 -183 14q-68 0 -195.5 -25.5t-187.5 -25.5q-51 0 -104 12zM373 954q0 47 33.5 88t78.5 41q53 0 95.5 -44t42.5 -95 q0 -43 -28 -66.5t-73 -23.5q-61 0 -98 18q-51 27 -51 82zM414 453q0 47 33.5 88t78.5 41q53 0 95.5 -44t42.5 -96q0 -43 -28 -66.5t-73 -23.5q-61 0 -98 19q-51 27 -51 82z" />
<glyph unicode="&#xf8;" horiz-adv-x="1280" d="M78 227q0 207 201.5 417t408.5 210q45 0 86 -12l53 92q31 51 45 72q29 37 58 55q8 -27 8 -66q0 -10 -4 -36.5t-20.5 -61.5t-55.5 -98q57 -47 57 -125q0 -10 -4 -35q113 -41 215 -100q150 -86 150 -156q0 -76 -326 -199q-287 -106 -522 -153l-53 -117q-14 -29 -38 -44 t-48 -20l6 54q12 57 37 114q-117 0 -180 45q-74 53 -74 164zM158 252q0 -82 43 -129t125 -47l30 2q18 43 32.5 70.5t57.5 107.5q29 51 74 125q113 184 125 207q-74 0 -125 3t-114 7q-27 0 -48.5 -1t-35.5 -9q-39 -18 -101.5 -151.5t-62.5 -184.5zM444 678q113 -41 228 -41 l59 119q-29 14 -46 19t-48 5q-53 0 -107 -30q-39 -23 -86 -72zM457 96q238 55 440 137q258 102 258 175q0 70 -135 116q-109 37 -291 58q-66 -111 -129 -222q-51 -88 -125 -225zM766 641q20 2 41.5 6t46.5 10l-51 48z" />
<glyph unicode="&#xf9;" horiz-adv-x="833" d="M74 197q0 98 102 321q117 252 211 273q-8 -57 -160 -377q-66 -137 -65 -209q0 -59 45 -86t108 -27q115 0 209 109q37 43 152 227q90 145 158 188q0 -182 -175 -391q-180 -217 -358 -217q-84 0 -151 51q-76 58 -76 138zM441 1161q0 14 4 31.5t10 38.5q16 -4 37.5 -22.5 t40.5 -33.5q96 -61 147 -125q68 -82 68 -176v-30q-53 20 -146 104q-74 68 -129 133q-32 37 -32 80z" />
<glyph unicode="&#xfa;" horiz-adv-x="833" d="M74 197q0 98 102 321q117 252 211 273q-8 -57 -160 -377q-66 -137 -65 -209q0 -59 45 -86t108 -27q115 0 209 109q37 43 152 227q90 145 158 188q0 -182 -175 -391q-180 -217 -358 -217q-84 0 -151 51q-76 58 -76 138zM635 862q8 25 20 50.5t31 57.5q39 66 86 113 q63 61 125 61q16 0 34 -6l-34 -67q-49 -86 -107 -139q-75 -70 -155 -70z" />
<glyph unicode="&#xfb;" horiz-adv-x="833" d="M74 197q0 98 102 321q117 252 211 273q-8 -57 -160 -377q-66 -137 -65 -209q0 -59 45 -86t108 -27q115 0 209 109q37 43 152 227q90 145 158 188q0 -182 -175 -391q-180 -217 -358 -217q-84 0 -151 51q-76 58 -76 138zM366 878q-2 18 6 32.5t27.5 35t77.5 67.5 q137 111 164 138q16 16 34 28q29 18 47 19q59 0 136 -150q70 -137 69 -198l-6 -37q-29 8 -35 10q-18 6 -30.5 17.5t-17.5 28.5t-9 42q-12 57 -37.5 103t-71.5 104q-84 -72 -167 -141q-121 -96 -185 -113z" />
<glyph unicode="&#xfc;" horiz-adv-x="833" d="M74 197q0 98 102 321q117 252 211 273q-8 -57 -160 -377q-66 -137 -65 -209q0 -59 45 -86t108 -27q115 0 209 109q37 43 152 227q90 145 158 188q0 -182 -175 -391q-180 -217 -358 -217q-84 0 -151 51q-76 58 -76 138zM330 944q0 47 34 88t79 41q53 0 95 -44t42 -95 q0 -43 -27.5 -66.5t-72.5 -23.5q-61 0 -99 18q-51 27 -51 82zM715 936q0 47 34 88t79 41q53 0 95 -44t42 -96q0 -43 -27.5 -66.5t-72.5 -23.5q-61 0 -99 19q-51 27 -51 82z" />
<glyph unicode="&#xfd;" horiz-adv-x="989" d="M76 621q0 8 10 28q6 -8 45 -29.5t41 -21.5q18 -12 217 -293q94 -133 174 -190q190 295 221 327q92 100 187 119q-8 -66 -82 -164q-37 -49 -123 -143q-123 -131 -234 -320q-80 -135 -182 -352q-10 -23 -18 -61q-16 -80 -31 -105q-41 -14 -88 -14q0 117 136 339t136 259 q0 39 -102 174t-201 264q-106 144 -106 183zM574 789q8 25 20 50.5t31 57.5q39 66 86 113q63 61 125 61q16 0 34 -6l-34 -67q-49 -86 -107 -139q-75 -70 -155 -70z" />
<glyph unicode="&#xfe;" horiz-adv-x="1028" d="M-27 -653q0 90 27 221q39 188 78 375q23 195 78 485q74 385 161 649q113 342 232 426q0 -57 -64.5 -255.5t-126.5 -391.5q-68 -227 -67 -317q102 66 289 145q213 92 301 92q76 0 114.5 -59.5t38.5 -138.5q0 -156 -162 -353q-168 -205 -319 -205q-72 0 -109 62 q-29 49 -38 127q20 -10 75 -70q47 -51 82 -51q113 0 250 177t137 294q0 135 -137 135q-76 0 -178 -37q-78 -29 -170 -77q-215 -113 -291 -424q-20 -84 -65 -543q-29 -291 -127 -348q-9 35 -9 82z" />
<glyph unicode="&#xff;" horiz-adv-x="989" d="M76 621q0 8 10 28q6 -8 45 -29.5t41 -21.5q18 -12 217 -293q94 -133 174 -190q190 295 221 327q92 100 187 119q-8 -66 -82 -164q-37 -49 -123 -143q-123 -131 -234 -320q-80 -135 -182 -352q-10 -23 -18 -61q-16 -80 -31 -105q-41 -14 -88 -14q0 117 136 339t136 259 q0 39 -102 174t-201 264q-106 144 -106 183zM227 805q0 47 34 88t79 41q53 0 95 -44t42 -95q0 -43 -27.5 -66.5t-72.5 -23.5q-61 0 -99 18q-51 27 -51 82zM612 797q0 47 34 88t79 41q53 0 95 -44t42 -96q0 -43 -27.5 -66.5t-72.5 -23.5q-61 0 -99 19q-51 27 -51 82z" />
<glyph unicode="&#x131;" horiz-adv-x="485" d="M92 51q0 127 80 338q88 231 176 287q14 -43 14 -74q0 -59 -45 -149q-57 -113 -65 -146l-43 -176q-14 -47 -42 -81t-71 -48q-6 26 -4 49z" />
<glyph unicode="&#x152;" horiz-adv-x="2426" d="M195 387q0 223 68.5 393t221.5 342q59 76 121 152q74 80 170 80q264 0 377 -29q211 -53 252 -225q10 90 14 128t13 89q18 96 54 134t85 38q0 -92 20 -174l678 213q33 -14 78 -21q39 -43 39 -96q-18 -2 -40 -3t-34 -1q-20 0 -67 2t-72 2q-68 0 -360.5 -109.5 t-301.5 -142.5q-37 -158 -92 -321q-160 -473 -172 -518.5t-40.5 -87.5t-67.5 -58q14 59 35.5 131t42.5 135q-129 -197 -287 -313q-176 -129 -350 -129q-176 0 -280.5 106.5t-104.5 282.5zM274 414q0 -184 84 -254q74 -61 263 -62q254 0 505 365q236 340 236 608 q0 115 -115 170q-86 41 -217 41q-287 0 -526 -293q-230 -280 -230 -575zM1389 16q49 68 131 111q16 8 276 96q55 18 75.5 23.5t43.5 5.5h31q6 0 30 -8l15 -51l-332 -95q-33 -10 -98 -37q-109 -45 -172 -45zM1493 715q227 102 244 108q156 61 254 62q47 0 78.5 -15.5 t44.5 -58.5q-106 -12 -161 -19.5t-91 -25.5q-63 -33 -105 -53q-147 -74 -186 -74q-31 0 -49.5 21.5t-28.5 54.5z" />
<glyph unicode="&#x153;" horiz-adv-x="1818" d="M78 231q0 213 182 426t369 213q86 0 144 -47t58 -135q0 -25 -2 -37q49 -20 89 -80q63 125 185 202t265 77q98 0 168 -41q88 -51 88 -141q0 -125 -127 -195q-106 -57 -242 -57q-135 0 -290 43q8 -31 8 -68q0 -51 -31 -94q18 -92 59 -147q51 -68 132 -68q109 0 344 82 t323 82q33 0 55.5 -18.5t34.5 -53.5q-111 0 -249 -43t-279 -87t-248 -44q-94 0 -158 70q-53 59 -77 159q-106 -90 -310 -155q-170 -55 -264 -56q-104 0 -162 48q-65 52 -65 165zM150 256q0 -178 151 -178q131 0 324 86q240 106 239 252q0 90 -125 139q-139 55 -366 55 q-20 0 -42 -1t-36 -9q-35 -20 -90 -157.5t-55 -186.5zM408 690q106 -41 210 -41q84 0 158 21q-49 59 -86 86q-53 39 -108 39q-47 0 -90 -29t-84 -76zM999 561q88 -33 144.5 -46t128.5 -13q74 0 166 51q104 57 104 123q0 47 -33.5 65.5t-85.5 18.5q-123 0 -230.5 -52.5 t-193.5 -146.5z" />
<glyph unicode="&#x178;" horiz-adv-x="890" d="M213 1589q0 16 5 34.5t15 39.5q49 -25 89 -86q29 -45 52 -112.5t51 -137.5t64 -129q23 -37 29 -51q14 -31 14 -57q0 -31 -17 -50.5t-50 -35.5q-18 63 -66 167q-59 133 -71 164q-49 86 -97 172q-10 29 -14 45.5t-4 36.5zM231 57q74 94 129 217q78 195 160 385.5t166 374.5 q74 160 145 273q88 137 254 340l60 -43q-25 -68 -96.5 -155t-139.5 -169q-84 -102 -119.5 -174t-150.5 -356q-143 -358 -193 -469q-106 -242 -155 -281zM373 1827q0 47 34 88t79 41q53 0 95 -44t42 -95q0 -43 -27.5 -66.5t-72.5 -23.5q-61 0 -99 18q-51 27 -51 82zM758 1819 q0 47 34 88t79 41q53 0 95 -44t42 -96q0 -43 -27.5 -66.5t-72.5 -23.5q-61 0 -99 19q-51 27 -51 82z" />
<glyph unicode="&#x2c6;" horiz-adv-x="1122" d="M262 1331q-2 18 6 32.5t27.5 35t77.5 67.5q137 111 164 138q16 16 34 28q29 18 47 19q59 0 136 -150q70 -137 69 -198l-6 -37q-29 8 -35 10q-18 6 -30.5 17.5t-17.5 28.5t-9 42q-12 57 -37.5 103t-71.5 104q-84 -72 -167 -141q-121 -96 -185 -113z" />
<glyph unicode="&#x2da;" horiz-adv-x="847" d="M207 1325q0 94 92 192.5t188 98.5q51 0 82 -26.5t23 -73.5q82 -33 125 -64t43 -55q0 -39 -188.5 -104.5t-249.5 -65.5q-53 0 -84 22.5t-31 75.5zM244 1335q0 -82 78 -82q55 0 219 57.5t164 96.5q0 41 -98.5 64.5t-248.5 23.5q-33 0 -39 -4q-18 -8 -46.5 -70.5 t-28.5 -85.5zM375 1534q57 -20 108 -21q37 0 82 11q-27 27 -45 39q-27 18 -55 18q-25 0 -46 -12t-44 -35z" />
<glyph unicode="&#x2dc;" horiz-adv-x="1032" d="M176 1513q0 20 112.5 58.5t145.5 38.5q55 0 91 -40t73 -40t145 18q59 10 93 11q29 0 46 -5.5t25 -23.5q-55 -12 -181 -30.5t-173 -18.5q-57 0 -71.5 39t-59.5 39q-31 0 -137 -52q-51 -25 -70 -24q-10 0 -18 4q-21 12 -21 26z" />
<glyph unicode="&#x2000;" horiz-adv-x="1040" />
<glyph unicode="&#x2001;" horiz-adv-x="2080" />
<glyph unicode="&#x2002;" horiz-adv-x="1040" />
<glyph unicode="&#x2003;" horiz-adv-x="2080" />
<glyph unicode="&#x2004;" horiz-adv-x="692" />
<glyph unicode="&#x2005;" horiz-adv-x="520" />
<glyph unicode="&#x2006;" horiz-adv-x="346" />
<glyph unicode="&#x2007;" horiz-adv-x="346" />
<glyph unicode="&#x2008;" horiz-adv-x="260" />
<glyph unicode="&#x2009;" horiz-adv-x="415" />
<glyph unicode="&#x200a;" horiz-adv-x="114" />
<glyph unicode="&#x2010;" horiz-adv-x="950" d="M174 715q6 37 19.5 62.5t44.5 25.5q18 0 55 -6t55 -6q33 0 72 10q113 31 123 30l223 23q16 2 22 2q133 0 162 -123q-45 0 -108 6q-147 14 -183 15q-68 0 -195.5 -26t-184.5 -26q-52 1 -105 13z" />
<glyph unicode="&#x2011;" horiz-adv-x="950" d="M174 715q6 37 19.5 62.5t44.5 25.5q18 0 55 -6t55 -6q33 0 72 10q113 31 123 30l223 23q16 2 22 2q133 0 162 -123q-45 0 -108 6q-147 14 -183 15q-68 0 -195.5 -26t-184.5 -26q-52 1 -105 13z" />
<glyph unicode="&#x2012;" horiz-adv-x="950" d="M174 715q6 37 19.5 62.5t44.5 25.5q18 0 55 -6t55 -6q33 0 72 10q113 31 123 30l223 23q16 2 22 2q133 0 162 -123q-45 0 -108 6q-147 14 -183 15q-68 0 -195.5 -26t-184.5 -26q-52 1 -105 13z" />
<glyph unicode="&#x2013;" horiz-adv-x="776" d="M-2 715q6 37 19.5 62.5t45.5 25.5q18 0 55.5 -6t55.5 -6q33 0 72 10q113 31 123 30l221 21q16 2 22 2q59 0 104.5 -31.5t59.5 -89.5q-45 0 -108 6q-147 14 -183 15q-68 0 -195.5 -26t-187.5 -26q-51 1 -104 13z" />
<glyph unicode="&#x2014;" horiz-adv-x="1054" d="M-2 715q6 37 19.5 62.5t45.5 25.5q25 0 65 -5t46 -5q31 0 127 14q219 33 240 33l301 12q72 0 122 -28.5t64 -92.5q-45 0 -108 6q-147 14 -183 15q-68 0 -223 -15q-379 -35 -412 -35q-51 1 -104 13z" />
<glyph unicode="&#x2018;" horiz-adv-x="522" d="M199 1491q0 63 20.5 116.5t71.5 75.5q20 -61 20 -135q0 -72 -16 -112q-23 -59 -80 -82q-4 25 -10 68.5t-6 68.5z" />
<glyph unicode="&#x2019;" horiz-adv-x="542" d="M186 1497q0 63 17 94q25 45 80 45l43 -4q-14 -84 -25 -145q-23 -119 -33 -127l-59 -19q-12 51 -17.5 84t-5.5 72z" />
<glyph unicode="&#x201a;" horiz-adv-x="393" d="M199 -80q0 94 22 158q33 92 107 108l4 -75q0 -102 -23 -172q-31 -96 -100 -140q-6 25 -8 54.5t-2 66.5z" />
<glyph unicode="&#x201c;" horiz-adv-x="716" d="M113 1571q0 51 23.5 74.5t76.5 29.5q0 -43 27 -217q12 -80 12 -131l-80 -2q-8 31 -33.5 135.5t-25.5 110.5zM311 1552q0 76 56 105q6 -33 47 -152q33 -98 32 -155q-59 14 -97 75t-38 127z" />
<glyph unicode="&#x201d;" horiz-adv-x="776" d="M180 1386q0 59 29 138q18 47 59 127q27 -16 58 -17q0 -193 -58 -370q-88 26 -88 122zM438 1417q0 35 8.5 69t34.5 89q25 -37 34 -80t9 -96q0 -61 -11 -95t-34 -59q-18 43 -29.5 87t-11.5 85z" />
<glyph unicode="&#x201e;" horiz-adv-x="935" d="M98 -6q0 59 29 137q18 47 59 127q27 -16 58 -16q0 -193 -58 -371q-88 27 -88 123zM356 25q0 35 8.5 68.5t34.5 88.5q25 -37 34 -80t9 -96q0 -61 -11 -95t-34 -58q-18 43 -29.5 87t-11.5 85z" />
<glyph unicode="&#x2022;" horiz-adv-x="563" d="M70 709q0 72 56 140.5t126 68.5q84 0 153.5 -72t69.5 -154q0 -74 -45 -110.5t-119 -36.5q-96 0 -159 33q-82 43 -82 131z" />
<glyph unicode="&#x2026;" horiz-adv-x="1361" d="M98 127q0 47 34 88t79 41q53 0 95 -44t42 -95q0 -43 -27.5 -66.5t-72.5 -23.5q-61 0 -98 18q-52 27 -52 82zM569 127q0 47 34 88t79 41q53 0 95 -44t42 -95q0 -43 -27.5 -66.5t-72.5 -23.5q-61 0 -98 18q-52 27 -52 82zM1020 127q0 47 33.5 88t79.5 41q53 0 95 -44 t42 -95q0 -43 -28 -66.5t-73 -23.5q-61 0 -98 18q-51 27 -51 82z" />
<glyph unicode="&#x202f;" horiz-adv-x="415" />
<glyph unicode="&#x2039;" horiz-adv-x="1067" d="M268 563q0 47 117 172q92 98 236 226l184 159l78 -37q-12 -43 -114.5 -137t-205.5 -184q-121 -111 -168 -182q238 -53 258 -60q197 -57 197 -112q0 -27 -20.5 -45.5t-47.5 -18.5q-37 0 -80 21q-119 57 -131 59q-147 25 -178 35q-125 38 -125 104z" />
<glyph unicode="&#x203a;" horiz-adv-x="1163" d="M344 268q0 84 121 211q45 47 227 207q125 109 125 141q0 76 -157.5 231.5t-157.5 192.5q0 10 14 29.5t25 19.5q25 0 51 -24q20 -18 39 -45q176 -190 273 -299t97 -133q0 -18 -9 -33.5t-31 -38.5q-14 -10 -58 -33q-25 -12 -35 -18q-127 -76 -214 -166t-248 -354 q-23 29 -37 53q-25 39 -25 59z" />
<glyph unicode="&#x205f;" horiz-adv-x="520" />
<glyph unicode="&#x2122;" horiz-adv-x="1208" d="M-6 1604q186 53 254 67q147 33 258 33q33 0 33 -27l-4 -28q-23 6 -44.5 10t-46.5 4q-35 0 -59.5 -4t-60 -14.5t-69.5 -176t-65 -327.5q-41 -180 -88 -205q-10 23 -10 57q0 84 45 217q102 305 103 373l-9 29l-26 8q-33 0 -99.5 -25.5t-76.5 -25.5l-21 8q-12 17 -14 27z M481 1067q0 68 41 221q31 115 70 223q8 -2 14 -6l8 -8l9 -22q0 -25 -25 -77t-29 -69q-20 -82 -30 -127q-20 -88 -21 -129l2 -29q29 23 154 357q53 143 78 143q27 0 51 -102q12 -49 33 -49q12 0 96 53q43 27 72 27q33 0 51 -23t18 -57q0 -66 -20 -142q-57 -215 -60 -235 q0 -25 -9 -45.5t-32 -30.5q-8 16 -14 33q0 59 61 248q31 94 31 149t-49 55q-14 0 -31 -8q-4 -2 -28 -18q-47 -29 -69 -45.5t-33 -41t-29.5 -159.5t-53.5 -158q-6 16 -8 42t-2 30q0 53 27.5 153.5t27.5 145.5q0 72 -39 129q-4 -4 -147 -371q-55 -141 -92 -153q-23 49 -23 96z " />
<glyph unicode="&#xe000;" horiz-adv-x="785" d="M0 785h785v-785h-785v785z" />
<glyph unicode="&#xfb01;" horiz-adv-x="1241" d="M848 51q0 127 80 338q88 231 176 287q14 -43 14 -74q0 -59 -45 -149q-57 -113 -65 -146l-43 -176q-14 -47 -42 -81t-71 -48q-5 20 -4 38q-1 5 0 11zM983 905q0 100 67.5 157.5t170.5 57.5q-10 -47 -42 -78.5t-54.5 -56t-51 -98.5t-67.5 -96q-23 57 -23 114zM94 618 q0 223 284 515t482 292q84 0 129 -71q-39 -20 -128 -38t-105 -22q-178 -47 -373 -282.5t-195 -419.5q0 -86 29 -270.5t29 -253.5q0 -33 -15 -66q-92 25 -122 274q-15 117 -15 342zM231 614q86 37 193.5 53.5t226.5 16.5q152 0 279 -29q-68 -70 -192 -71.5t-156 -5.5 l-213 -33q-51 0 -82 15t-56 54z" />
<glyph unicode="&#xfb02;" horiz-adv-x="1298" d="M877 229q0 59 55 310q49 219 113.5 466.5t91.5 311.5q20 51 45 82q33 43 76 51q2 -16 6 -31q2 -12 2 -30q0 -63 -82 -299q-127 -367 -152 -447q-82 -268 -81 -412q0 -27 20 -104q10 -39 10 -59q0 -27 -20.5 -44.5t-48.5 -23.5q-35 114 -35 229zM94 618q0 223 284 515 t482 292q84 0 129 -71q-39 -20 -128 -38t-105 -22q-178 -47 -373 -282.5t-195 -419.5q0 -86 29 -270.5t29 -253.5q0 -33 -15 -66q-92 25 -122 274q-15 117 -15 342zM231 614q86 37 193.5 53.5t226.5 16.5q152 0 279 -29q-68 -70 -192 -71.5t-156 -5.5l-213 -33q-51 0 -82 15 t-56 54z" />
<glyph unicode="&#xfb03;" horiz-adv-x="1996" d="M1603 51q0 127 80 338q88 231 176 287q14 -43 14 -74q0 -59 -45 -149q-57 -113 -65 -146l-43 -176q-14 -47 -42 -81t-71 -48q-5 20 -4 38q-1 5 0 11zM1738 905q0 100 67.5 157.5t170.5 57.5q-10 -47 -42 -78.5t-54.5 -56t-51 -98.5t-67.5 -96q-23 57 -23 114zM850 618 q0 223 284 515t482 292q84 0 129 -71q-39 -20 -128 -38t-105 -22q-178 -47 -373 -282.5t-195 -419.5q0 -86 29 -270.5t29 -253.5q0 -33 -15 -66q-92 25 -122 274q-15 117 -15 342zM987 614q86 37 193.5 53.5t226.5 16.5q152 0 279 -29q-68 -70 -192 -71.5t-156 -5.5 l-213 -33q-51 0 -82 15t-56 54zM94 618q0 223 284 515t482 292q84 0 129 -71q-39 -20 -128 -38t-105 -22q-178 -47 -373 -282.5t-195 -419.5q0 -86 29 -270.5t29 -253.5q0 -33 -15 -66q-92 25 -122 274q-15 117 -15 342zM231 614q86 37 193.5 53.5t226.5 16.5q152 0 279 -29 q-68 -70 -192 -71.5t-156 -5.5l-213 -33q-51 0 -82 15t-56 54z" />
<glyph unicode="&#xfb04;" horiz-adv-x="2054" d="M1632 229q0 59 55 310q49 219 113.5 466.5t91.5 311.5q20 51 45 82q33 43 76 51q2 -16 6 -31q2 -12 2 -30q0 -63 -82 -299q-127 -367 -152 -447q-82 -268 -81 -412q0 -27 20 -104q10 -39 10 -59q0 -27 -20.5 -44.5t-48.5 -23.5q-35 114 -35 229zM850 618q0 223 284 515 t482 292q84 0 129 -71q-39 -20 -128 -38t-105 -22q-178 -47 -373 -282.5t-195 -419.5q0 -86 29 -270.5t29 -253.5q0 -33 -15 -66q-92 25 -122 274q-15 117 -15 342zM987 614q86 37 193.5 53.5t226.5 16.5q152 0 279 -29q-68 -70 -192 -71.5t-156 -5.5l-213 -33q-51 0 -82 15 t-56 54zM94 618q0 223 284 515t482 292q84 0 129 -71q-39 -20 -128 -38t-105 -22q-178 -47 -373 -282.5t-195 -419.5q0 -86 29 -270.5t29 -253.5q0 -33 -15 -66q-92 25 -122 274q-15 117 -15 342zM231 614q86 37 193.5 53.5t226.5 16.5q152 0 279 -29q-68 -70 -192 -71.5 t-156 -5.5l-213 -33q-51 0 -82 15t-56 54z" />
</font>
</defs>
</svg>
